<svg width="466" height="466" viewBox="0 0 466 466" fill="none" xmlns="http://www.w3.org/2000/svg">
<path d="M373.452 402.242C396.482 381.533 413.593 353.247 426.511 325.818C445.701 285.071 455.916 234.23 429.13 194.611C413.677 171.758 389.539 157.331 362.743 151.897C336.964 146.678 311.894 147.806 289.721 131.468C267.297 114.925 247.781 94.2906 227.706 75.0821C176.092 25.6861 82.314 39.8525 38.7617 106.36C-4.79067 172.868 7.07369 259.264 49.0137 299.34C86.6758 335.343 139.222 342.38 180.808 370.526C201.414 384.506 215.823 405.075 237.66 417.35C263.057 431.619 294.195 437.472 322.807 430.183C342.286 425.216 359.025 415.215 373.452 402.242Z" fill="#FFC984"/>
<path opacity="0.7" d="M373.452 402.242C396.482 381.533 413.593 353.247 426.511 325.818C445.701 285.071 455.916 234.23 429.13 194.611C413.677 171.758 389.539 157.331 362.743 151.897C336.964 146.678 311.894 147.806 289.721 131.468C267.297 114.925 247.781 94.2906 227.706 75.0821C176.092 25.6861 82.314 39.8525 38.7617 106.36C-4.79067 172.868 7.07369 259.264 49.0137 299.34C86.6758 335.343 139.222 342.38 180.808 370.526C201.414 384.506 215.823 405.075 237.66 417.35C263.057 431.619 294.195 437.472 322.807 430.183C342.286 425.216 359.025 415.215 373.452 402.242Z" fill="white"/>
<path d="M416.38 413.668L412.773 379.809" stroke="#263238" stroke-width="0.985332" stroke-linecap="round" stroke-linejoin="round"/>
<path d="M412.755 380.759C412.755 380.759 406.277 375.717 406.277 364.188C406.277 352.66 414.917 343.302 414.917 343.302C414.917 343.302 424.284 354.831 422.121 366.351C419.959 377.87 412.755 380.759 412.755 380.759Z" fill="#92E3A9" stroke="#263238" stroke-width="0.985332" stroke-linecap="round" stroke-linejoin="round"/>
<path d="M412.773 379.809L414.423 354.365" stroke="#263238" stroke-width="0.985332" stroke-linecap="round" stroke-linejoin="round"/>
<path d="M419.708 411.17C422.852 403.066 426.69 395.249 431.18 387.805" stroke="#263238" stroke-width="0.985332" stroke-linecap="round" stroke-linejoin="round"/>
<path d="M427.788 393.929C427.788 393.929 424.19 386.538 429.279 376.221C434.368 365.903 446.26 361.309 446.26 361.309C446.26 361.309 449.569 375.783 442.532 385.168C435.496 394.553 427.788 393.929 427.788 393.929Z" fill="#92E3A9" stroke="#263238" stroke-width="0.985332" stroke-linecap="round" stroke-linejoin="round"/>
<path d="M427.788 393.928L440.901 372.371" stroke="#263238" stroke-width="0.985332" stroke-linecap="round" stroke-linejoin="round"/>
<path d="M410.536 414.19C408.582 407.68 405.926 401.402 402.614 395.467L397.572 386.78" stroke="#263238" stroke-width="0.985332" stroke-linecap="round" stroke-linejoin="round"/>
<path d="M401.627 393.5C397.648 394.722 393.425 394.916 389.351 394.066C385.276 393.215 381.484 391.347 378.327 388.635C367.143 379.24 367.767 360.069 367.767 360.069C367.767 360.069 389.445 356.975 398.197 369.258C400.734 372.698 402.376 376.714 402.974 380.946C403.573 385.178 403.11 389.492 401.627 393.5Z" fill="#92E3A9" stroke="#263238" stroke-width="0.985332" stroke-linecap="round" stroke-linejoin="round"/>
<path d="M401.626 393.5L375.931 366.724" stroke="#263238" stroke-width="0.985332" stroke-linecap="round" stroke-linejoin="round"/>
<path d="M428.235 406.417H400.807V433.315H428.235V406.417Z" fill="#263238" stroke="#263238" stroke-width="0.985332" stroke-linecap="round" stroke-linejoin="round"/>
<path d="M382.409 27.0278H198.936V181.6H382.409V27.0278Z" fill="white" stroke="#263238" stroke-width="0.985332" stroke-linecap="round" stroke-linejoin="round"/>
<path d="M237.017 113.928H235.526L235.274 112.231H233.466L233.205 113.928H231.854L233.354 104.542H235.516L237.017 113.928ZM233.652 110.955H235.069L234.361 106.201L233.652 110.955Z" fill="#263238"/>
<path d="M239.104 104.542V111.784C239.104 112.455 239.403 112.716 239.869 112.716C240.335 112.716 240.642 112.474 240.642 111.784V104.542H242.031V111.691C242.031 113.191 241.285 114.049 239.831 114.049C238.377 114.049 237.632 113.191 237.632 111.691V104.542H239.104Z" fill="#263238"/>
<path d="M242.609 104.542H247.166V105.885H245.629V113.928H244.184V105.885H242.646L242.609 104.542Z" fill="#263238"/>
<path d="M249.291 113.928H247.81V104.542H249.291V108.569H250.96V104.542H252.47V113.928H250.96V109.911H249.291V113.928Z" fill="#263238"/>
<path d="M255.014 108.494H257.036V109.836H255.014V112.632H257.558V113.974H253.504V104.542H257.521V105.885H254.976L255.014 108.494Z" fill="#263238"/>
<path d="M259.786 107.18V113.974H258.462V104.542H260.326L261.846 110.134V104.542H263.16V113.928H261.641L259.786 107.18Z" fill="#263238"/>
<path d="M263.756 104.542H268.323V105.885H266.776V113.928H265.303V105.885H263.756V104.542Z" fill="#263238"/>
<path d="M268.975 104.542H270.448V113.928H268.975V104.542Z" fill="#263238"/>
<path d="M275.797 110.433V111.682C275.797 113.182 275.052 114.04 273.598 114.04C272.144 114.04 271.398 113.182 271.398 111.682V106.798C271.398 105.288 272.153 104.431 273.598 104.431C275.043 104.431 275.797 105.288 275.797 106.798V107.73H274.409V106.723C274.409 106.052 274.111 105.791 273.645 105.791C273.179 105.791 272.88 106.052 272.88 106.723V111.793C272.88 112.464 273.169 112.725 273.645 112.725C274.12 112.725 274.409 112.492 274.409 111.793V110.451L275.797 110.433Z" fill="#263238"/>
<path d="M281.464 113.928H279.973L279.721 112.231H277.922L277.661 113.928H276.31L277.811 104.542H279.973L281.464 113.928ZM278.1 110.955H279.516L278.808 106.201L278.1 110.955Z" fill="#263238"/>
<path d="M281.212 104.542H285.779V105.885H284.26V113.928H282.787V105.885H281.24L281.212 104.542Z" fill="#263238"/>
<path d="M287.895 108.494H289.917V109.836H287.895V112.632H290.449V113.974H286.422V104.542H290.449V105.885H287.895V108.494Z" fill="#263238"/>
<path d="M294.82 110.815L292.956 104.542H294.512L295.64 108.82L296.767 104.542H298.175L296.311 110.815V113.928H294.838L294.82 110.815Z" fill="#263238"/>
<path d="M298.426 106.798C298.426 106.205 298.662 105.636 299.081 105.216C299.501 104.797 300.07 104.561 300.663 104.561C301.256 104.561 301.825 104.797 302.245 105.216C302.664 105.636 302.9 106.205 302.9 106.798V111.682C302.9 112.275 302.664 112.844 302.245 113.263C301.825 113.683 301.256 113.918 300.663 113.918C300.07 113.918 299.501 113.683 299.081 113.263C298.662 112.844 298.426 112.275 298.426 111.682V106.798ZM299.899 111.775C299.899 112.446 300.197 112.707 300.663 112.707C301.129 112.707 301.427 112.455 301.427 111.775V106.705C301.427 106.034 301.129 105.773 300.663 105.773C300.197 105.773 299.899 106.034 299.899 106.705V111.775Z" fill="#263238"/>
<path d="M305.258 104.542V111.784C305.258 112.455 305.556 112.716 306.022 112.716C306.488 112.716 306.787 112.474 306.787 111.784V104.542H308.185V111.691C308.185 113.191 307.439 114.049 305.985 114.049C304.531 114.049 303.786 113.191 303.786 111.691V104.542H305.258Z" fill="#263238"/>
<path d="M312.276 113.928C312.152 113.556 312.108 113.162 312.146 112.772V111.299C312.146 110.433 311.847 110.107 311.214 110.107H310.701V113.928H309.229V104.542H311.456C312.984 104.542 313.637 105.251 313.637 106.705V107.441C313.685 107.809 313.622 108.183 313.456 108.515C313.29 108.848 313.028 109.122 312.705 109.305C313.441 109.613 313.683 110.321 313.683 111.299V112.772C313.655 113.158 313.709 113.546 313.842 113.909L312.276 113.928ZM310.664 105.885V108.764H311.288C311.838 108.764 312.174 108.522 312.174 107.777V106.845C312.174 106.173 311.95 105.913 311.428 105.913L310.664 105.885Z" fill="#263238"/>
<path d="M321.438 113.928H319.946L319.695 112.231H317.877L317.626 113.928H316.274L317.812 104.542H319.974L321.438 113.928ZM318.073 110.955H319.49L318.744 106.248L318.073 110.955Z" fill="#263238"/>
<path d="M326.386 110.433V111.682C326.386 113.182 325.631 114.04 324.187 114.04C322.742 114.04 321.987 113.182 321.987 111.682V106.798C321.987 105.288 322.733 104.431 324.187 104.431C325.641 104.431 326.386 105.288 326.386 106.798V107.73H324.988V106.723C324.988 106.052 324.69 105.791 324.224 105.791C323.758 105.791 323.46 106.052 323.46 106.723V111.793C323.46 112.464 323.758 112.725 324.224 112.725C324.69 112.725 324.988 112.492 324.988 111.793V110.451L326.386 110.433Z" fill="#263238"/>
<path d="M331.559 110.433V111.682C331.559 113.182 330.814 114.04 329.36 114.04C327.906 114.04 327.16 113.182 327.16 111.682V106.798C327.16 105.288 327.915 104.431 329.36 104.431C330.804 104.431 331.559 105.288 331.559 106.798V107.73H330.161V106.723C330.161 106.052 329.872 105.791 329.397 105.791C328.922 105.791 328.633 106.052 328.633 106.723V111.793C328.633 112.464 328.931 112.725 329.397 112.725C329.863 112.725 330.161 112.492 330.161 111.793V110.451L331.559 110.433Z" fill="#263238"/>
<path d="M332.333 106.798C332.313 106.491 332.356 106.184 332.46 105.895C332.564 105.606 332.726 105.341 332.936 105.117C333.146 104.893 333.4 104.714 333.681 104.592C333.963 104.47 334.267 104.407 334.574 104.407C334.881 104.407 335.185 104.47 335.467 104.592C335.749 104.714 336.003 104.893 336.213 105.117C336.423 105.341 336.585 105.606 336.689 105.895C336.792 106.184 336.836 106.491 336.816 106.798V111.682C336.836 111.988 336.792 112.295 336.689 112.585C336.585 112.874 336.423 113.138 336.213 113.363C336.003 113.587 335.749 113.765 335.467 113.887C335.185 114.009 334.881 114.072 334.574 114.072C334.267 114.072 333.963 114.009 333.681 113.887C333.4 113.765 333.146 113.587 332.936 113.363C332.726 113.138 332.564 112.874 332.46 112.585C332.356 112.295 332.313 111.988 332.333 111.682V106.798ZM333.815 111.775C333.815 112.446 334.104 112.707 334.579 112.707C335.054 112.707 335.343 112.455 335.343 111.775V106.705C335.343 106.034 335.045 105.773 334.579 105.773C334.113 105.773 333.815 106.034 333.815 106.705V111.775Z" fill="#263238"/>
<path d="M339.174 104.542V111.784C339.174 112.455 339.472 112.716 339.938 112.716C340.404 112.716 340.702 112.474 340.702 111.784V104.542H342.1V111.691C342.1 113.191 341.355 114.049 339.901 114.049C338.447 114.049 337.701 113.191 337.701 111.691V104.542H339.174Z" fill="#263238"/>
<path d="M344.421 107.18V113.974H343.097V104.542H344.961L346.48 110.134V104.542H347.794V113.928H346.275L344.421 107.18Z" fill="#263238"/>
<path d="M348.4 104.542H352.967V105.885H351.42V113.928H349.948V105.885H348.4V104.542Z" fill="#263238"/>
<path d="M312.309 75.759C314.157 64.2843 306.353 53.4839 294.878 51.6357C283.404 49.7875 272.603 57.5913 270.755 69.066C268.907 80.5407 276.711 91.3411 288.185 93.1893C299.66 95.0375 310.461 87.2337 312.309 75.759Z" fill="#FFC984"/>
<path d="M300.71 67.5606C300.71 69.3762 300.172 71.1511 299.163 72.6608C298.154 74.1705 296.72 75.3471 295.043 76.042C293.365 76.7368 291.52 76.9186 289.739 76.5644C287.958 76.2102 286.322 75.3358 285.038 74.052C283.755 72.7681 282.88 71.1323 282.526 69.3515C282.172 67.5708 282.354 65.7249 283.048 64.0475C283.743 62.37 284.92 60.9362 286.43 59.9275C287.939 58.9188 289.714 58.3804 291.53 58.3804C293.965 58.3804 296.3 59.3476 298.021 61.0692C299.743 62.7908 300.71 65.1258 300.71 67.5606Z" fill="#263238"/>
<path d="M276.422 87.0486C278.382 89.074 280.73 90.6845 283.325 91.7844C285.921 92.8843 288.711 93.4511 291.53 93.4511C294.348 93.4511 297.138 92.8843 299.734 91.7844C302.329 90.6845 304.677 89.074 306.637 87.0486V86.4428C306.639 85.3797 306.43 84.3267 306.024 83.3442C305.618 82.3616 305.023 81.4687 304.271 80.7165C303.52 79.9643 302.628 79.3676 301.646 78.9604C300.663 78.5533 299.611 78.3437 298.548 78.3438H284.521C282.373 78.3438 280.313 79.197 278.794 80.7159C277.275 82.2348 276.422 84.2948 276.422 86.4428V87.0486Z" fill="#263238"/>
<path d="M354.598 130.843H227.641V146.277H354.598V130.843Z" stroke="#263238" stroke-width="0.985332" stroke-miterlimit="10"/>
<path d="M354.598 153.985H227.641V169.419H354.598V153.985Z" fill="#FFC984" stroke="#263238" stroke-width="0.985332" stroke-miterlimit="10"/>
<path d="M270.224 138.999V139.931H267.932V143.267H270.728V144.199H266.869V134.842H270.728V135.774H267.932V138.98L270.224 138.999Z" fill="#BDBDBD"/>
<path d="M272.638 144.236H271.706V134.842H273.076L275.248 141.627V134.842H276.18V144.236H275.089L272.685 136.641L272.638 144.236Z" fill="#BDBDBD"/>
<path d="M278.566 144.236V135.792H276.804V134.86H281.315V135.792H279.6V144.236H278.566Z" fill="#BDBDBD"/>
<path d="M285.406 138.999V139.931H283.114V143.267H285.91V144.199H282.051V134.842H285.91V135.774H283.114V138.98L285.406 138.999Z" fill="#BDBDBD"/>
<path d="M288.985 134.842C290.467 134.842 291.082 135.597 291.082 136.985V137.75C291.147 138.158 291.065 138.576 290.852 138.931C290.639 139.285 290.308 139.553 289.917 139.688C290.775 139.94 291.092 140.62 291.092 141.645V143.109C291.064 143.494 291.128 143.88 291.278 144.236H290.225C290.076 143.874 290.015 143.481 290.048 143.09V141.664C290.048 140.602 289.554 140.266 288.678 140.266H287.988V144.283H286.944V134.842H288.985ZM288.724 139.269C289.554 139.269 290.048 138.999 290.048 137.983V137.051C290.048 136.212 289.74 135.764 288.957 135.764H287.988V139.241L288.724 139.269Z" fill="#BDBDBD"/>
<path d="M298.408 137.106V137.936H297.411V137.004C297.411 136.156 297.075 135.643 296.311 135.643C295.547 135.643 295.211 136.156 295.211 137.004V141.962C295.211 142.81 295.556 143.323 296.311 143.323C297.066 143.323 297.411 142.81 297.411 141.962V140.741H298.408V141.906C298.408 143.332 297.728 144.273 296.283 144.273C294.838 144.273 294.177 143.341 294.177 141.906V137.05C294.177 135.634 294.848 134.692 296.283 134.692C297.718 134.692 298.408 135.69 298.408 137.106Z" fill="#BDBDBD"/>
<path d="M299.274 137.106C299.274 135.671 299.983 134.749 301.418 134.749C302.853 134.749 303.58 135.681 303.58 137.106V141.962C303.58 143.388 302.872 144.329 301.418 144.329C299.964 144.329 299.274 143.398 299.274 141.962V137.106ZM300.309 142.018C300.309 142.876 300.672 143.379 301.418 143.379C302.164 143.379 302.536 142.876 302.536 142.018V137.06C302.536 136.212 302.182 135.699 301.418 135.699C300.654 135.699 300.309 136.212 300.309 137.06V142.018Z" fill="#BDBDBD"/>
<path d="M306.768 134.842C308.231 134.842 308.902 135.727 308.902 137.181V141.916C308.902 143.351 308.231 144.236 306.768 144.236H304.568V134.842H306.768ZM306.768 143.23C307.513 143.23 307.877 142.764 307.877 141.906V137.079C307.877 136.221 307.513 135.746 306.749 135.746H305.622V143.202L306.768 143.23Z" fill="#BDBDBD"/>
<path d="M313.217 138.999V139.931H310.924V143.267H313.72V144.199H309.853V134.842H313.72V135.774H310.924V138.98L313.217 138.999Z" fill="#BDBDBD"/>
<path d="M282.582 158.067C284.036 158.067 284.707 158.999 284.707 160.406V165.141C284.707 166.576 284.036 167.461 282.582 167.461H280.374V158.067H282.582ZM282.582 166.511C283.337 166.511 283.701 166.035 283.701 165.178V160.35C283.701 159.493 283.337 159.027 282.573 159.027H281.464V166.483L282.582 166.511Z" fill="#263238"/>
<path d="M285.611 160.304C285.611 158.869 286.32 157.937 287.755 157.937C289.19 157.937 289.917 158.869 289.917 160.304V165.16C289.96 165.462 289.936 165.771 289.845 166.064C289.755 166.356 289.601 166.624 289.394 166.85C289.187 167.075 288.933 167.252 288.649 167.368C288.366 167.483 288.06 167.534 287.755 167.517C286.32 167.517 285.611 166.585 285.611 165.16V160.304ZM286.637 165.215C286.637 166.073 287 166.567 287.755 166.567C288.51 166.567 288.864 166.073 288.864 165.215V160.304C288.864 159.456 288.519 158.943 287.755 158.943C286.991 158.943 286.637 159.456 286.637 160.304V165.215Z" fill="#263238"/>
<path d="M291.828 167.461H290.896V158.067H292.219L294.391 164.861V158.067H295.323V167.461H294.233L291.828 159.866V167.461Z" fill="#263238"/>
<path d="M299.731 162.233V163.165H297.438V166.511H300.234V167.443H296.376V158.067H300.244V158.999H297.448V162.205L299.731 162.233Z" fill="#263238"/>
<path d="M382.409 27.0278H198.936V34.5025H382.409V27.0278Z" fill="#FFC984" stroke="#263238" stroke-width="0.985332" stroke-linecap="round" stroke-linejoin="round"/>
<path d="M76.1631 265.872V264.492" stroke="#263238" stroke-width="0.985332" stroke-linecap="round" stroke-linejoin="round"/>
<path d="M76.1631 261.761V143.593C76.1631 141.206 76.6335 138.841 77.5474 136.636C78.4613 134.43 79.8008 132.426 81.4894 130.739C83.178 129.051 85.1826 127.712 87.3887 126.8C89.5947 125.887 91.959 125.418 94.3464 125.419H180.808" stroke="#263238" stroke-width="0.985332" stroke-linecap="round" stroke-linejoin="round" stroke-dasharray="2.93 2.93"/>
<path d="M182.215 125.419H183.585" stroke="#263238" stroke-width="0.985332" stroke-linecap="round" stroke-linejoin="round"/>
<path d="M192.672 126.174L177.816 117.59V134.748L192.672 126.174Z" fill="#263238"/>
<path d="M334.495 380.964H335.874" stroke="#263238" stroke-width="0.985332" stroke-linecap="round" stroke-linejoin="round"/>
<path d="M338.605 380.964H343.703C348.54 380.964 353.18 379.042 356.6 375.622C360.021 372.201 361.942 367.562 361.942 362.725V190.305" stroke="#263238" stroke-width="0.985332" stroke-linecap="round" stroke-linejoin="round" stroke-dasharray="2.93 2.93"/>
<path d="M361.942 188.944V187.574" stroke="#263238" stroke-width="0.985332" stroke-linecap="round" stroke-linejoin="round"/>
<path d="M329.294 380.163L344.151 388.737V371.579L329.294 380.163Z" fill="#263238"/>
<path d="M251.444 268.286C252.236 266.777 253.427 265.515 254.886 264.636C256.345 263.757 258.017 263.295 259.72 263.299H339.453C339.453 263.299 345.213 263.299 343.488 274.25C341.764 285.201 318.129 352.063 312.36 372.232C306.591 392.4 305.444 435.058 305.444 435.058H209.765C209.765 435.058 217.435 333.218 251.444 268.286Z" fill="white" stroke="#263238" stroke-width="0.985332" stroke-linecap="round" stroke-linejoin="round"/>
<path d="M325.622 282.321C317.56 301.129 300.458 375.521 297.737 435.058H305.444C305.444 435.058 306.628 392.372 312.36 372.231C318.092 352.091 341.755 285.201 343.489 274.25C345.222 263.299 339.453 263.299 339.453 263.299C339.453 263.299 332.081 267.242 325.622 282.321Z" fill="#263238" stroke="#263238" stroke-width="0.985332" stroke-linecap="round" stroke-linejoin="round"/>
<path d="M174.004 264.809C174.004 264.809 159.372 263.029 149.707 252.87C140.042 242.711 170.715 206.485 187.09 197.947C203.465 189.41 210.213 191.75 227.772 204.695C245.33 217.641 262.47 238.415 262.256 252.348C262.041 266.282 254.455 272.945 265.052 279.814C275.648 286.683 305.64 306.19 310.021 319.592C314.401 332.994 306.805 349.668 289.218 358.736C271.632 367.804 242.777 367.385 214.985 358.401C187.192 349.416 181.144 320.99 184.722 309.424C188.301 297.858 197.77 289.908 194.919 281.11C192.067 272.312 174.004 264.809 174.004 264.809Z" fill="#263238" stroke="#263238" stroke-width="0.985332" stroke-linecap="round" stroke-linejoin="round"/>
<path d="M186.549 304.764C186.549 304.764 171.413 302.658 164.423 307.178C157.433 311.698 122.894 370.731 122.894 370.731L103.815 345.054L87.2725 352.482C87.2725 352.482 95.0267 382.493 104.048 397.424C113.07 412.354 118.215 413.864 121.309 413.37C130.517 411.907 157.191 381.048 157.191 381.048L166.884 413.295L160.304 436.735H282.862L267.997 411.944C267.997 411.944 287.391 322.472 282.452 312.994C277.512 303.515 248.732 304.764 239.682 304.764H213.773C209.846 305.543 205.856 305.955 201.853 305.994C196.734 305.845 191.626 305.435 186.549 304.764Z" fill="#FFC984"/>
<path d="M268.416 307.784L268.667 307.886L266.319 313.87L266.058 313.767L268.416 307.784ZM267.773 314.438L268.024 314.541L270.382 308.557L270.121 308.455L267.773 314.438ZM278.463 333.479L278.192 333.404L277.158 337.086H277.447L278.463 333.479ZM280.234 333.982L279.963 333.908L279.031 337.086H279.311L280.234 333.982ZM269.05 334.187L269.926 337.086H270.215L269.283 334.103L269.05 334.187ZM271.081 333.581L270.811 333.656L271.846 337.086H272.134L271.081 333.581ZM278.584 319.89L281.781 314.298L281.548 314.159L278.351 319.751L278.584 319.89ZM280.187 320.822L283.179 315.594C283.179 315.435 283.179 315.296 283.123 315.146L279.945 320.692L280.187 320.822ZM282.284 328.772L282.815 328.073L282.871 327.561L282.06 328.605L282.284 328.772ZM274.371 323.096L278.826 327.756L279.022 327.57L274.567 322.91L274.371 323.096ZM272.964 324.336L277.41 328.996L277.615 328.81L273.16 324.15L272.964 324.336ZM268.052 324.336L268.127 324.066L264.688 323.218V323.497L268.052 324.336ZM264.641 321.54L268.509 322.519L268.574 322.248L264.688 321.316L264.641 321.54ZM268.956 329.863L268.872 329.602L264.688 331.056V331.345L268.956 329.863ZM268.295 327.85L264.641 329.061V329.35L268.369 328.111L268.295 327.85ZM266.272 379.92L268.621 373.937L268.369 373.835L266.011 379.818L266.272 379.92ZM270.075 374.506L267.726 380.489L267.978 380.592L270.336 374.608L270.075 374.506ZM269.954 402.559L269.236 400.164L268.966 400.238L269.842 403.127L269.954 402.559ZM274.614 362.315L274.353 362.408L276.533 368.457H276.589L276.673 368.037L274.614 362.315ZM276.077 361.784L277.223 364.943C277.223 364.766 277.288 364.589 277.316 364.403L276.338 361.691L276.077 361.784ZM280.159 346.033L280.308 346.527L280.392 345.968L280.159 346.033ZM274.026 345.669L273.654 352.082H273.924L274.297 345.66L274.026 345.669ZM275.49 352.193H275.76L276.133 345.772H275.862L275.49 352.193ZM267.652 345.39L267.782 345.148L264.613 343.442V343.759L267.652 345.39ZM264.613 341.662L268.518 343.759L268.649 343.517L264.688 341.42L264.613 341.662ZM267.055 351.364L266.878 351.159L264.688 353.228V353.591L267.055 351.364ZM265.853 349.975L265.676 349.761L264.613 350.693V351.056L265.853 349.975ZM264.688 361.001V361.29L270.485 359.025L270.382 358.773L264.688 361.001ZM264.688 359.025V359.323L269.814 357.319L269.711 357.059L264.688 359.025ZM268.108 370.694L268.173 370.423L264.688 369.641V369.92L268.108 370.694ZM268.509 368.904L268.574 368.634L264.688 367.758V368.037L268.509 368.904ZM268.052 390.508L268.127 390.247L264.641 389.362V389.651L268.052 390.508ZM264.688 387.712L268.556 388.7L268.621 388.43L264.688 387.442V387.712ZM269.003 396.035L268.919 395.774L264.688 397.172V397.47L269.003 396.035ZM268.425 394.292L268.341 394.031L264.688 395.243V395.531L268.425 394.292ZM276.711 339.658L277.447 337.076H277.158L276.45 339.584L276.711 339.658ZM279.348 337.076H279.069L278.22 340.077L278.481 340.161L279.348 337.076ZM270.867 340.329L271.137 340.255L270.205 337.076H269.916L270.867 340.329ZM272.889 339.723L272.097 337.076H271.808L272.628 339.807L272.889 339.723ZM274.427 428.59L276.608 434.629L276.869 434.536L274.688 428.496L274.427 428.59ZM278.593 433.911L276.412 427.872L276.151 427.965L278.342 434.004L278.593 433.911ZM281.678 435.402L281.408 435.328L281.016 436.726H281.305L281.678 435.402ZM264.688 409.94L267.726 411.571L267.857 411.329L264.688 409.623V409.94ZM264.688 407.853L268.416 409.894L268.472 409.614L264.688 407.545V407.853ZM267.083 417.536L266.906 417.322L264.688 419.307V419.661L267.083 417.536ZM265.881 416.138L265.704 415.933L264.641 416.865V417.228L265.881 416.138ZM270.336 424.862L264.688 427.117V427.415L270.485 425.141L270.336 424.862ZM264.641 425.411L269.767 423.408L269.665 423.156L264.641 425.113V425.411ZM264.641 435.729V436.018L267.726 436.707H268.08L268.127 436.521L264.641 435.729ZM268.462 434.992L268.528 434.722L264.641 433.846V434.135L268.462 434.992ZM199.895 313.739L200.147 313.842L202.505 307.858L202.244 307.756L199.895 313.739ZM201.601 314.41L201.862 314.513L204.21 308.529L203.959 308.427L201.601 314.41ZM261.827 322.752L264.623 323.469V323.19L261.873 322.491L261.827 322.752ZM262.348 320.711L262.274 320.971L264.641 321.577V321.288L262.348 320.711ZM264.688 331.345V331.056L262.824 331.68L262.908 331.941L264.688 331.345ZM262.19 329.928L262.274 330.189L264.641 329.406V329.117L262.19 329.928ZM257.232 337.086H257.549L258.76 334.979L258.527 334.84L257.232 337.086ZM259.357 337.086H259.674L260.354 335.893L260.121 335.753L259.357 337.086ZM245.498 334.513L245.284 334.691L247.25 337.086H247.604L245.498 334.513ZM246.709 333.526L249.627 337.086H249.981L246.924 333.358L246.709 333.526ZM239.757 336.666L239.505 336.76L239.617 337.086H239.915L239.757 336.666ZM241.229 336.135L241.574 337.067H241.863L241.49 336.023L241.229 336.135ZM231.145 337.067L231.937 333.945L231.667 333.88L230.856 337.067H231.145ZM233.447 334.327L232.748 337.067H233L233.68 334.402L233.447 334.327ZM212.319 333.46L212.048 333.386L211.005 337.067H211.294L212.319 333.46ZM214.08 333.964L213.819 333.889L212.887 337.067H213.176L214.08 333.964ZM202.896 334.169L203.772 337.067H204.061L203.129 334.085L202.896 334.169ZM204.919 333.563L204.658 333.637L205.692 337.067H205.972L204.919 333.563ZM212.431 319.872L215.627 314.28L215.385 314.14L212.188 319.732L212.431 319.872ZM213.791 320.655L214.024 320.785L217.221 315.193L216.979 315.053L213.791 320.655ZM250.26 324.755L256.179 327.262L256.281 327.011L250.363 324.504L250.26 324.755ZM249.543 326.442L255.461 328.949L255.563 328.698L249.599 326.2L249.543 326.442ZM254.529 316.787L254.79 316.861L256.542 310.682L256.272 310.598L254.529 316.787ZM256.29 317.29L256.561 317.365L258.304 311.176L258.043 311.102L256.29 317.29ZM246.672 305.789L248.536 311.94L248.797 311.866L246.98 305.696L246.672 305.789ZM248.424 305.258L250.288 311.409L250.549 311.335L248.685 305.183L248.424 305.258ZM228.116 331.606L226.252 325.454L225.991 325.529L227.855 331.689L228.116 331.606ZM229.878 331.074L228.014 324.923L227.743 324.998L229.607 331.158L229.878 331.074ZM237.147 327.514L243.513 326.582V326.312L237.147 327.244V327.514ZM237.408 329.332L243.774 328.4V328.129L237.408 329.061V329.332ZM242.068 321.493L242.338 321.559L243.774 315.296L243.503 315.23L242.068 321.493ZM245.293 315.64L243.858 321.903L244.128 321.969L245.563 315.706L245.293 315.64ZM222.748 317.924L222.981 318.073L226.42 312.639L226.187 312.5L222.748 317.924ZM227.976 313.627L227.743 313.478L224.304 318.912L224.537 319.061L227.976 313.627ZM222.002 307.374L227.892 304.801V304.736H227.389L221.918 307.122L222.002 307.374ZM222.627 308.8L222.738 309.051L228.629 306.488L228.517 306.237L222.627 308.8ZM217.035 304.736H216.746L215.292 309.787L215.562 309.862L217.035 304.736ZM213.819 309.396L215.124 304.736H214.835L213.549 309.284L213.819 309.396ZM239.039 306.712L238.405 304.764H238.116L238.722 306.777L239.039 306.712ZM237.017 307.318L237.287 307.243L236.541 304.773H236.252L237.017 307.318ZM215.916 328.623L216.131 328.791L220.045 323.693L219.821 323.525L215.916 328.623ZM217.37 329.742L217.594 329.909L221.499 324.802L221.285 324.634L217.37 329.742ZM208.218 323.115L212.673 327.775L212.878 327.589L208.423 322.929L208.218 323.115ZM206.839 324.336L211.294 328.996L211.489 328.81L207.044 324.15L206.839 324.336ZM231.238 316.097L231.126 316.349L237.045 318.865L237.157 318.604L231.238 316.097ZM231.844 314.662L237.762 317.169L237.874 316.917L231.956 314.41L231.844 314.662ZM201.936 324.336L202.001 324.066L198.516 323.218V323.497L201.936 324.336ZM198.525 321.54L202.384 322.519L202.458 322.248L198.516 321.316L198.525 321.54ZM202.84 329.863L202.747 329.602L198.516 331.056V331.345L202.84 329.863ZM202.169 327.85L198.525 329.061V329.35L202.253 328.111L202.169 327.85ZM202.244 373.835L199.895 379.818L200.147 379.92L202.505 373.937L202.244 373.835ZM203.959 374.506L201.601 380.489L201.862 380.592L204.21 374.608L203.959 374.506ZM262.022 342.342L264.641 343.759V343.442L262.153 342.1L262.022 342.342ZM263.019 340.478L262.889 340.711L264.641 341.643V341.326L263.019 340.478ZM264.688 353.228L262.087 355.483L262.265 355.688L264.688 353.591V353.228ZM261.062 354.3L264.688 351.168V350.805L260.885 354.085L261.062 354.3ZM264.399 361.159L264.492 361.42L264.688 361.336V361.047L264.399 361.159ZM263.728 359.454L263.821 359.705L264.688 359.37V359.072L263.728 359.454ZM264.66 369.706L261.864 369.072L261.799 369.342L264.65 369.985L264.66 369.706ZM264.66 367.842L262.274 367.301L262.218 367.571L264.66 368.121V367.842ZM264.66 389.418L261.892 388.644L261.827 388.914L264.623 389.632L264.66 389.418ZM262.367 386.938L262.293 387.209L264.688 387.712V387.432L262.367 386.938ZM264.688 397.47V397.172L262.824 397.796L262.908 398.057L264.688 397.47ZM264.688 395.531V395.243L262.237 396.053L262.32 396.314L264.688 395.531ZM226.849 340.348L220.93 337.831L220.828 338.083L226.746 340.599L226.849 340.348ZM220.11 339.779L226.028 342.286L226.131 342.035L220.213 339.528L220.11 339.779ZM258.742 401.096L258.509 400.965L257.232 403.211H257.549L258.742 401.096ZM260.335 402.028L260.102 401.888L259.338 403.23H259.655L260.335 402.028ZM245.265 400.825L247.231 403.23H247.586L245.479 400.648L245.265 400.825ZM246.691 399.66L249.608 403.23H249.962L246.905 399.502L246.691 399.66ZM239.738 402.81L239.486 402.904L239.598 403.23H239.897L239.738 402.81ZM241.211 402.279L241.556 403.211H241.844L241.472 402.167L241.211 402.279ZM231.891 400.108L231.62 400.033L230.81 403.23H231.136L231.891 400.108ZM233.401 400.49L232.702 403.23H233L233.68 400.555L233.401 400.49ZM212.272 399.614L212.002 399.539L210.958 403.267H211.247L212.272 399.614ZM214.034 400.117L213.773 400.042L212.841 403.23H213.13L214.034 400.117ZM202.85 400.322L203.726 403.23H204.015L203.083 400.247L202.85 400.322ZM204.611 399.8L205.646 403.23H205.925L204.872 399.716L204.611 399.8ZM215.338 380.321L212.142 385.913L212.384 386.053L215.581 380.461L215.338 380.321ZM217.202 381.365L216.96 381.225L213.773 386.817L214.006 386.957L217.202 381.365ZM243.196 350.74L239.095 345.772L238.89 345.949L242.954 350.926L243.196 350.74ZM241.779 351.905L237.66 346.909L237.445 347.086L241.518 352.063L241.779 351.905ZM231.704 349.183L233.885 355.222L234.146 355.129L231.965 349.09L231.704 349.183ZM233.438 348.559L235.619 354.598L235.87 354.505L233.689 348.465L233.438 348.559ZM256.262 393.164L250.344 390.657L250.242 390.909L256.16 393.416L256.262 393.164ZM255.545 394.86L249.627 392.344L249.524 392.605L255.442 395.112L255.545 394.86ZM256.253 376.761L254.51 382.949L254.771 383.024L256.523 376.836L256.253 376.761ZM258.285 377.339L258.024 377.264L256.272 383.443L256.542 383.518L258.285 377.339ZM248.806 378.001L246.942 371.849L246.682 371.924L248.546 378.084L248.806 378.001ZM250.568 377.469L248.704 371.318L248.434 371.393L250.298 377.553L250.568 377.469ZM231.928 361.374L228.731 366.966L228.964 367.096L232.161 361.504L231.928 361.374ZM230.567 360.6L230.325 360.46L227.138 366.052L227.371 366.183L230.567 360.6ZM219.709 365.68L215.637 360.684L215.422 360.861L219.495 365.838L219.709 365.68ZM221.126 364.515L217.063 359.538L216.848 359.715L220.912 364.692L221.126 364.515ZM208.265 362.492L210.445 368.541L210.706 368.448L208.516 362.399L208.265 362.492ZM209.989 361.868L212.17 367.916L212.431 367.823L210.25 361.774L209.989 361.868ZM254.436 366.761L254.706 366.826L256.29 360.6L256.02 360.526L254.436 366.761ZM258.071 361.047L257.8 360.982L256.216 367.208L256.486 367.273L258.071 361.047ZM247.558 366.276L241.639 363.769L241.537 364.021L247.455 366.537L247.558 366.276ZM248.275 364.589L242.32 362.082L242.217 362.334L248.135 364.841L248.275 364.589ZM228.116 397.731L226.252 391.57L225.991 391.654L227.855 397.806L228.116 397.731ZM229.878 397.2L228.014 391.039L227.743 391.123L229.607 397.274L229.878 397.2ZM243.513 392.735V392.465L237.147 393.397V393.667L243.513 392.735ZM243.774 394.553V394.283L237.408 395.215V395.485L243.774 394.553ZM242.32 387.712L243.755 381.449L243.485 381.384L242.049 387.656L242.32 387.712ZM244.109 388.122L245.544 381.859L245.274 381.794L243.839 388.066L244.109 388.122ZM226.401 378.802L226.168 378.653L222.748 384.049L222.981 384.198L226.401 378.802ZM227.958 379.781L227.725 379.632L224.286 385.065L224.519 385.214L227.958 379.781ZM227.874 370.955L227.771 370.703L221.872 373.275L221.984 373.527L227.874 370.955ZM228.61 372.642L228.498 372.39L222.608 374.962L222.72 375.214L228.61 372.642ZM217.286 369.846L217.025 369.762L215.292 375.904L215.562 375.978L217.286 369.846ZM213.773 375.531L215.515 369.342L215.255 369.268L213.502 375.456L213.773 375.531ZM238.983 372.8L237.119 366.649L236.849 366.723L238.713 372.884L238.983 372.8ZM235.115 367.208L236.979 373.359L237.25 373.285L235.386 367.133L235.115 367.208ZM226.178 351.364L221.042 355.241L221.21 355.455L226.345 351.588L226.178 351.364ZM222.319 356.956L227.445 353.079L227.287 352.865L222.151 356.732L222.319 356.956ZM217.883 351.634L216.103 345.455L215.832 345.539L217.622 351.709L217.883 351.634ZM214.071 346.042L215.851 352.296L216.121 352.221L214.36 346.024L214.071 346.042ZM207.938 345.679L207.566 352.091H207.836L208.209 345.669L207.938 345.679ZM209.392 352.203H209.672L210.045 345.781H209.765L209.392 352.203ZM219.952 389.772L219.728 389.604L215.823 394.711L216.037 394.879L219.952 389.772ZM221.406 390.89L221.191 390.722L217.277 395.83L217.501 395.997L221.406 390.89ZM208.125 389.194L212.58 393.854L212.785 393.658L208.33 388.998L208.125 389.194ZM206.839 390.508L211.294 395.168L211.489 394.982L207.044 390.322L206.839 390.508ZM253.644 354.71L253.429 354.542L249.384 359.538L249.599 359.715L253.644 354.71ZM252.003 353.386L247.958 358.382L248.173 358.559L252.208 353.554L252.003 353.386ZM253.131 343.908H252.861L252.134 350.292H252.413L253.131 343.908ZM251.034 343.666L250.316 350.059H250.587L251.304 343.675L251.034 343.666ZM237.157 384.767L231.238 382.26L231.126 382.511L237.045 385.019L237.157 384.767ZM231.844 380.815L237.762 383.322L237.874 383.071L231.956 380.564L231.844 380.815ZM201.563 345.483L201.694 345.241L198.525 343.535V343.852L201.563 345.483ZM198.525 341.755L202.43 343.852L202.561 343.61L198.516 341.42L198.525 341.755ZM200.967 351.457L200.781 351.252L198.516 353.228V353.591L200.967 351.457ZM199.765 350.069L199.578 349.854L198.525 350.786V351.15L199.765 350.069ZM204.21 358.792L198.525 361.02V361.308L204.313 359.044L204.21 358.792ZM203.642 357.338L203.549 357.077L198.516 359.025V359.323L203.642 357.338ZM201.946 370.712L202.001 370.442L198.525 369.659V369.939L201.946 370.712ZM198.516 368.037L202.337 368.904L202.402 368.634L198.516 367.758V368.037ZM201.936 390.508L202.001 390.247L198.525 389.362V389.651L201.936 390.508ZM198.516 387.712L202.374 388.7L202.449 388.43L198.516 387.442V387.712ZM202.831 396.035L202.738 395.774L198.516 397.172V397.47L202.831 396.035ZM202.253 394.292L202.16 394.031L198.516 395.243V395.531L202.253 394.292ZM255.303 340.413L255.536 340.543L257.521 337.076H257.232L255.303 340.413ZM256.896 341.345L257.129 341.475L259.646 337.095H259.329L256.896 341.345ZM249.543 339.481L247.576 337.076H247.222L249.328 339.649L249.543 339.481ZM250.754 338.493L250.969 338.316L249.953 337.076H249.599L250.754 338.493ZM241.919 342.706L239.887 337.114H239.589L241.658 342.836L241.919 342.706ZM243.382 342.174L243.643 342.081L241.835 337.076H241.546L243.382 342.174ZM230.055 340.115L230.325 340.18L231.117 337.076H230.828L230.055 340.115ZM231.835 340.571L232.105 340.637L233.037 337.076H232.748L231.835 340.571ZM210.539 339.639L211.266 337.058H210.977L210.268 339.565L210.539 339.639ZM213.176 337.058H212.887L212.039 340.059L212.309 340.143L213.176 337.058ZM204.695 340.31L204.956 340.236L204.024 337.058H203.735L204.695 340.31ZM206.717 339.705L205.916 337.058H205.636L206.447 339.789L206.717 339.705ZM262.143 408.253L262.013 408.496L264.632 409.912V409.595L262.143 408.253ZM263.01 406.641L262.88 406.883L264.632 407.815V407.508L263.01 406.641ZM264.688 419.661V419.307L262.087 421.553L262.265 421.758L264.688 419.661ZM264.688 417.238V416.874L260.885 420.164L261.062 420.369L264.688 417.238ZM264.399 427.229L264.492 427.49L264.688 427.415V427.117L264.399 427.229ZM263.728 425.523L263.821 425.784L264.688 425.439V425.141L263.728 425.523ZM261.864 435.132L261.799 435.402L264.65 436.046V435.757L261.864 435.132ZM264.66 433.874L262.274 433.333L262.218 433.604L264.66 434.163V433.874ZM226.849 406.464L220.93 403.957L220.828 404.208L226.746 406.715L226.849 406.464ZM220.11 405.895L226.028 408.412L226.131 408.151L220.213 405.644L220.11 405.895ZM238.89 412.037L242.954 417.014L243.168 416.837L239.095 411.869L238.89 412.037ZM241.751 418.002L237.66 413.034L237.445 413.202L241.518 418.179L241.751 418.002ZM234.118 421.264L231.937 415.215L231.676 415.309L233.857 421.357L234.118 421.264ZM235.842 420.64L233.662 414.591L233.41 414.684L235.591 420.733L235.842 420.64ZM232.114 427.639L231.881 427.499L228.685 433.091L228.918 433.231L232.114 427.639ZM230.521 426.707L230.278 426.576L227.091 432.168L227.324 432.308L230.521 426.707ZM219.663 431.786L215.637 426.856L215.422 427.024L219.495 432.001L219.663 431.786ZM221.08 430.621L217.016 425.654L216.802 425.821L220.865 430.798L221.08 430.621ZM210.66 434.554L208.47 428.515L208.218 428.608L210.399 434.648L210.66 434.554ZM212.384 433.93L210.203 427.891L209.942 427.984L212.123 434.023L212.384 433.93ZM256.188 426.726L255.918 426.66L254.333 432.886L254.604 432.951L256.188 426.726ZM257.968 427.173L257.698 427.108L256.113 433.343L256.384 433.408L257.968 427.173ZM247.558 432.448L241.639 429.941L241.537 430.193L247.455 432.7L247.558 432.448ZM248.275 430.752L242.32 428.198L242.217 428.45L248.135 430.966L248.275 430.752ZM217.016 435.887L216.755 436.819H217.044L217.277 435.999L217.016 435.887ZM215.506 435.458L215.245 435.384L214.844 436.782H215.133L215.506 435.458ZM236.868 432.886L238.042 436.782H238.331L237.138 432.802L236.868 432.886ZM235.376 433.333L235.115 433.408L236.122 436.782H236.411L235.376 433.333ZM226.345 417.834L226.178 417.62L221.042 421.488L221.21 421.711L226.345 417.834ZM227.445 419.307L227.287 419.083L222.151 422.951L222.319 423.175L227.445 419.307ZM217.622 417.937L217.883 417.853L216.103 411.683L215.832 411.758L217.622 417.937ZM216.121 418.365L214.36 412.149L214.099 412.224L215.879 418.393L216.121 418.365ZM207.836 418.365L208.209 411.953H207.938L207.566 418.375L207.836 418.365ZM209.7 418.477L210.073 412.056H209.793L209.42 418.468L209.7 418.477ZM253.672 420.882L253.457 420.705L249.412 425.7L249.627 425.877L253.672 420.882ZM252.031 419.549L247.986 424.545L248.201 424.722L252.236 419.726L252.031 419.549ZM253.159 410.08H252.889L252.162 416.464H252.441L253.159 410.08ZM251.062 409.847L250.344 416.231H250.615L251.332 409.838L251.062 409.847ZM201.591 411.655L201.722 411.413L198.553 409.707V410.024L201.591 411.655ZM202.589 409.791L198.516 407.545V407.853L202.421 409.959L202.589 409.791ZM200.967 417.536L200.781 417.322L198.516 419.297V419.661L200.967 417.536ZM199.765 416.138L199.578 415.933L198.525 416.865V417.228L199.765 416.138ZM204.21 424.862L198.525 427.089V427.387L204.313 425.113L204.21 424.862ZM198.525 425.411L203.642 423.408L203.549 423.156L198.525 425.113V425.411ZM198.525 435.729V436.018L201.61 436.707H201.955L202.001 436.521L198.525 435.729ZM202.346 434.992L202.412 434.722L198.525 433.846V434.135L202.346 434.992ZM255.545 406.65L257.53 403.183H257.232L255.368 406.51L255.545 406.65ZM259.338 403.183L256.906 407.424L257.139 407.564L259.655 403.183H259.338ZM249.338 405.756L249.552 405.578L247.586 403.183H247.231L249.338 405.756ZM250.764 404.591L250.978 404.413L249.962 403.183H249.608L250.764 404.591ZM241.928 408.803L239.897 403.211H239.598L241.667 408.924L241.928 408.803ZM243.392 408.281L243.653 408.179L241.844 403.183H241.556L243.392 408.281ZM230.344 406.287L231.136 403.183H230.847L230.073 406.222L230.344 406.287ZM231.853 406.669L232.124 406.734L233.056 403.183H232.767L231.853 406.669ZM210.557 405.737L211.284 403.165H210.995L210.287 405.662L210.557 405.737ZM212.906 403.165L212.058 406.166L212.328 406.24L213.195 403.165H212.906ZM204.714 406.417L204.975 406.333L204.043 403.165H203.754L204.714 406.417ZM206.466 405.886L206.736 405.811L205.935 403.165H205.655L206.466 405.886ZM195.72 322.78L198.516 323.497V323.218L195.766 322.519L195.72 322.78ZM196.242 320.738L196.176 320.999L198.544 321.605V321.316L196.242 320.738ZM198.516 331.345V331.056L196.652 331.68L196.745 331.941L198.516 331.345ZM196.074 329.928L196.158 330.189L198.525 329.406V329.117L196.074 329.928ZM191.06 337.086H191.377L192.588 334.979L192.346 334.84L191.06 337.086ZM193.175 337.086H193.492L194.182 335.893L193.94 335.753L193.175 337.086ZM179.326 334.513L179.112 334.691L181.078 337.086H181.432L179.326 334.513ZM180.538 333.526L183.445 337.086H183.809L180.752 333.358L180.538 333.526ZM173.585 336.666L173.324 336.76L173.445 337.086H173.734L173.585 336.666ZM175.057 336.135L175.393 337.067H175.691L175.318 336.023L175.057 336.135ZM164.964 337.067L165.756 333.945L165.495 333.88L164.684 337.067H164.964ZM167.275 334.327L166.576 337.067H166.865L167.536 334.402L167.275 334.327ZM145.122 337.067L146.137 333.46L145.876 333.386L144.833 337.067H145.122ZM147.918 333.964L147.647 333.889L146.715 337.067H147.004L147.918 333.964ZM184.06 324.755L189.979 327.262L190.091 327.011L184.172 324.504L184.06 324.755ZM183.343 326.442L189.289 328.996L189.401 328.744L183.483 326.2L183.343 326.442ZM188.329 316.787L188.599 316.861L190.342 310.682L190.081 310.598L188.329 316.787ZM190.1 317.29L190.361 317.365L192.113 311.176L191.852 311.102L190.1 317.29ZM180.547 305.789L182.411 311.94L182.672 311.866L180.808 305.696L180.547 305.789ZM182.308 305.258L184.172 311.409L184.433 311.335L182.569 305.183L182.308 305.258ZM159.884 325.529L161.748 331.689L162.009 331.606L160.145 325.454L159.884 325.529ZM163.762 331.121L161.898 324.97L161.637 325.044L163.501 331.205L163.762 331.121ZM171.031 327.561L177.397 326.629V326.358L171.031 327.29V327.561ZM171.245 329.108V329.378L177.611 328.446V328.176L171.245 329.108ZM177.639 315.342L177.369 315.277L175.943 321.54L176.204 321.605L177.639 315.342ZM179.167 315.687L177.732 321.95L177.993 322.015L179.428 315.752L179.167 315.687ZM156.576 317.924L156.809 318.073L160.248 312.639L160.015 312.5L156.576 317.924ZM158.132 318.912L158.365 319.061L161.804 313.627L161.571 313.478L158.132 318.912ZM172.839 306.675L172.243 304.689H171.963L172.578 306.712L172.839 306.675ZM170.817 307.28L171.078 307.206L170.416 304.988L170.146 305.044L170.817 307.28ZM149.716 328.586L149.931 328.754L153.836 323.656L153.621 323.488L149.716 328.586ZM155.308 324.765L155.085 324.597L151.18 329.704L151.403 329.872L155.308 324.765ZM165.094 316.106L164.992 316.358L170.91 318.874L171.012 318.614L165.094 316.106ZM165.709 314.671L171.628 317.178L171.73 316.927L165.812 314.42L165.709 314.671ZM136.109 373.9L133.76 379.883L134.012 379.986L136.361 374.002L136.109 373.9ZM137.815 374.571L135.466 380.554L135.718 380.657L138.076 374.673L137.815 374.571ZM195.878 342.407L198.506 343.824V343.507L196.009 342.165L195.878 342.407ZM196.885 340.543L196.754 340.776L198.506 341.708V341.392L196.885 340.543ZM198.516 353.228L195.906 355.483L196.093 355.688L198.516 353.591V353.228ZM194.89 354.3L198.516 351.168V350.805L194.713 354.085L194.89 354.3ZM198.218 361.159L198.32 361.42L198.516 361.336V361.047L198.218 361.159ZM198.516 359.072L197.584 359.454L197.686 359.705L198.553 359.37L198.516 359.072ZM198.516 369.687L195.72 369.053L195.664 369.324L198.516 369.967V369.687ZM196.13 367.264L196.065 367.534L198.516 368.084V367.804L196.13 367.264ZM198.516 389.334L195.766 388.635L195.692 388.905L198.488 389.623L198.516 389.334ZM196.214 386.855L196.149 387.125L198.516 387.712V387.432L196.214 386.855ZM198.516 397.47V397.172L196.652 397.796L196.745 398.057L198.516 397.47ZM198.516 395.531V395.243L196.065 396.053L196.149 396.314L198.516 395.531ZM154.712 338.083L160.63 340.599L160.742 340.348L154.824 337.831L154.712 338.083ZM153.994 339.779L159.912 342.286L160.024 342.035L154.106 339.528L153.994 339.779ZM192.635 401.096L192.393 400.965L191.06 403.211H191.377L192.635 401.096ZM194.229 402.028L193.986 401.888L193.222 403.23H193.539L194.229 402.028ZM179.158 400.825L181.125 403.23H181.479L179.373 400.648L179.158 400.825ZM180.584 399.66L183.492 403.23H183.855L180.798 399.502L180.584 399.66ZM173.631 402.81L173.37 402.904L173.492 403.23H173.781L173.631 402.81ZM175.104 402.279L175.439 403.211H175.738L175.365 402.167L175.104 402.279ZM164.731 403.211H165.01L165.803 400.089L165.542 400.014L164.731 403.211ZM167.322 400.471L166.623 403.211H166.912L167.583 400.536L167.322 400.471ZM137.004 400.229L136.743 400.303L137.255 402L137.479 401.795L137.004 400.229ZM138.765 399.698L138.495 399.781L138.747 400.583L138.961 400.369L138.765 399.698ZM149.474 380.433L149.232 380.303L146.035 385.895L146.277 386.034L149.474 380.433ZM147.871 386.957L151.068 381.365L150.825 381.225L147.629 386.817L147.871 386.957ZM177.08 350.721L172.979 345.772L172.765 345.949L176.837 350.926L177.08 350.721ZM175.654 351.886L171.581 346.909L171.376 347.086L175.439 352.063L175.654 351.886ZM165.588 349.164L167.769 355.204L168.03 355.111L165.849 349.071L165.588 349.164ZM167.312 348.54L169.493 354.579L169.754 354.486L167.573 348.447L167.312 348.54ZM190.128 393.146L184.21 390.638L184.098 390.89L190.016 393.397L190.128 393.146ZM189.41 394.842L183.492 392.325L183.38 392.586L189.298 395.093L189.41 394.842ZM190.118 376.742L188.366 382.931L188.637 383.005L190.379 376.817L190.118 376.742ZM192.15 377.32L191.889 377.246L190.128 383.425L190.389 383.499L192.15 377.32ZM182.672 377.982L180.808 371.831L180.547 371.905L182.411 378.066L182.672 377.982ZM184.433 377.451L182.569 371.299L182.308 371.374L184.172 377.535L184.433 377.451ZM165.793 361.355L162.597 366.947L162.839 367.078L166.036 361.486L165.793 361.355ZM164.2 360.423L161.003 366.015L161.245 366.146L164.442 360.554L164.2 360.423ZM149.288 360.842L153.36 365.819L153.565 365.642L149.521 360.684L149.288 360.842ZM150.704 359.677L154.777 364.654L154.991 364.477L150.984 359.519L150.704 359.677ZM142.12 362.473L144.301 368.522L144.562 368.429L142.381 362.38L142.12 362.473ZM143.854 361.849L146.035 367.898L146.287 367.804L144.106 361.756L143.854 361.849ZM188.264 366.761L188.534 366.826L190.109 360.6L189.848 360.526L188.264 366.761ZM191.899 361.047L191.628 360.982L190.044 367.208L190.314 367.273L191.899 361.047ZM181.442 366.276L175.523 363.769L175.412 364.021L181.33 366.537L181.442 366.276ZM182.159 364.589L176.241 362.082L176.129 362.334L182.047 364.841L182.159 364.589ZM161.655 391.123L163.519 397.274L163.78 397.2L161.916 391.039L161.655 391.123ZM177.406 392.735V392.465L171.04 393.397V393.667L177.406 392.735ZM177.658 394.553V394.283L171.292 395.215V395.485L177.658 394.553ZM176.204 387.712L177.639 381.449L177.369 381.384L175.943 387.656L176.204 387.712ZM177.993 388.122L179.428 381.859L179.167 381.794L177.732 388.066L177.993 388.122ZM160.043 378.653L157.62 382.483L157.722 382.838L160.304 378.765L160.043 378.653ZM161.599 379.632L158.319 384.813L158.421 385.158L161.832 379.781L161.599 379.632ZM155.746 373.275L155.858 373.527L161.748 370.955L161.637 370.703L155.746 373.275ZM162.485 372.642L162.373 372.39L156.483 374.962L156.585 375.214L162.485 372.642ZM151.161 369.846L150.891 369.762L149.12 375.904L149.381 375.978L151.161 369.846ZM147.638 375.531L149.39 369.342L149.129 369.268L147.377 375.456L147.638 375.531ZM172.867 372.8L171.003 366.649L170.742 366.723L172.606 372.884L172.867 372.8ZM168.99 367.208L170.854 373.359L171.115 373.285L169.251 367.133L168.99 367.208ZM160.052 351.364L154.926 355.241L155.094 355.455L160.22 351.588L160.052 351.364ZM156.026 356.704L156.194 356.928L161.329 353.051L161.161 352.837L156.026 356.704ZM149.716 345.52L151.496 351.69L151.767 351.616L149.977 345.436L149.716 345.52ZM147.955 346.024L149.735 352.203L149.996 352.128L148.188 346.024H147.955ZM141.431 352.072H141.71L142.083 345.651H141.804L141.431 352.072ZM143.91 345.781H143.64L143.267 352.203H143.537L143.91 345.781ZM146.165 393.024L142.232 388.933L142.037 389.119L145.979 393.22L146.165 393.024ZM140.909 390.228L140.732 390.508L144.721 394.655L144.907 394.46L140.909 390.228ZM187.509 354.626L187.295 354.458L183.259 359.454L183.473 359.631L187.509 354.626ZM185.869 353.303L181.824 358.298L182.038 358.475L186.083 353.47L185.869 353.303ZM187.015 343.908H186.735L186.018 350.292H186.288L187.015 343.908ZM184.909 343.666L184.191 350.059H184.471L185.188 343.675L184.909 343.666ZM171.031 384.767L165.113 382.26L165.01 382.511L170.929 385.019L171.031 384.767ZM171.749 383.071L165.831 380.564L165.728 380.815L171.646 383.322L171.749 383.071ZM134.842 351.467L134.664 351.261L134.45 351.448L133.984 352.212L134.842 351.467ZM138.094 358.801L132.409 361.029V361.318L138.197 359.053L138.094 358.801ZM137.526 357.347L137.423 357.086L132.409 359.053V359.351L137.526 357.347ZM135.82 370.722L135.885 370.451L132.409 369.668V369.948L135.82 370.722ZM136.23 368.932L136.286 368.662L132.409 367.786V368.065L136.23 368.932ZM135.811 390.508L135.885 390.247L132.409 389.362V389.651L135.811 390.508ZM132.409 387.712L136.268 388.7L136.333 388.43L132.409 387.432V387.712ZM136.715 396.035L136.631 395.774L132.409 397.162V397.461L136.715 396.035ZM136.137 394.292L136.053 394.031L132.409 395.233V395.522L136.137 394.292ZM189.196 340.422L189.438 340.553L191.423 337.086H191.06L189.196 340.422ZM190.79 341.354L191.032 341.485L193.539 337.104H193.222L190.79 341.354ZM183.445 339.49L181.479 337.086H181.125L183.231 339.658L183.445 339.49ZM184.648 338.502L184.862 338.325L183.855 337.086H183.492L184.648 338.502ZM175.812 342.715L173.781 337.123H173.492L175.551 342.846L175.812 342.715ZM177.285 342.184L177.546 342.091L175.738 337.086H175.439L177.285 342.184ZM163.957 340.124L164.228 340.189L165.01 337.086H164.731L163.957 340.124ZM165.737 340.581L165.998 340.646L166.93 337.086H166.641L165.737 340.581ZM144.171 339.593L144.441 339.667L145.168 337.086H144.879L144.171 339.593ZM147.079 337.086H146.79L145.942 340.087L146.203 340.171L147.079 337.086ZM195.906 408.524L198.534 409.94V409.623L196.037 408.281L195.906 408.524ZM196.913 406.66L196.782 406.902L198.534 407.834V407.526L196.913 406.66ZM198.516 419.661V419.297L195.906 421.553L196.093 421.758L198.516 419.661ZM198.516 417.238V416.874L194.713 420.164L194.89 420.369L198.516 417.238ZM198.218 427.229L198.32 427.49L198.516 427.415V427.117L198.218 427.229ZM197.547 425.523L197.649 425.784L198.516 425.439V425.141L197.547 425.523ZM195.683 435.132L195.627 435.402L198.479 436.046V435.757L195.683 435.132ZM198.479 433.874L196.093 433.333L196.027 433.604L198.479 434.163V433.874ZM172.765 412.037L176.837 417.014L177.052 416.837L172.979 411.869L172.765 412.037ZM175.626 418.002L171.553 413.034L171.348 413.202L175.412 418.179L175.626 418.002ZM168.002 421.264L166.138 416.063L166.008 416.52L167.75 421.357L168.002 421.264ZM169.726 420.64L167.545 414.591L167.284 414.684L169.465 420.733L169.726 420.64ZM165.998 427.639L165.756 427.499L162.559 433.091L162.802 433.231L165.998 427.639ZM164.134 426.595L162.168 430.118L161.86 431.208L164.442 426.698L164.134 426.595ZM190.053 426.744L189.792 426.679L188.208 432.905L188.478 432.97L190.053 426.744ZM191.843 427.192L191.572 427.126L189.988 433.361L190.258 433.427L191.843 427.192ZM181.442 432.448L175.523 429.941L175.412 430.193L181.33 432.7L181.442 432.448ZM182.159 430.752L176.241 428.245L176.129 428.496L182.047 431.013L182.159 430.752ZM170.752 432.886L171.926 436.782H172.215L171.012 432.802L170.752 432.886ZM169.26 433.333L168.99 433.408L170.006 436.782H170.295L169.26 433.333ZM187.518 420.845L187.304 420.668L183.268 425.663L183.483 425.84L187.518 420.845ZM185.878 419.512L181.833 424.507L182.047 424.684L186.092 419.689L185.878 419.512ZM187.015 410.043H186.735L186.018 416.427H186.288L187.015 410.043ZM184.909 409.81L184.191 416.194H184.471L185.188 409.8L184.909 409.81ZM189.429 406.725L191.414 403.258H191.06L189.196 406.585L189.429 406.725ZM193.213 403.258L190.78 407.498L191.023 407.638L193.53 403.258H193.213ZM183.222 405.83L183.436 405.653L181.47 403.258H181.115L183.222 405.83ZM184.638 404.665L184.853 404.488L183.846 403.258H183.483L184.638 404.665ZM175.803 408.878L173.771 403.286H173.482L175.542 408.999L175.803 408.878ZM177.276 408.356L177.536 408.253L175.728 403.258H175.43L177.276 408.356ZM164.321 404.805L164.479 405.317L165.001 403.258H164.721L164.321 404.805ZM165.728 406.743L165.989 406.809L166.921 403.258H166.632L165.728 406.743ZM132.111 361.159L132.213 361.42L132.409 361.336V361.047L132.111 361.159ZM132.409 359.072L131.477 359.454L131.58 359.705L132.446 359.37L132.409 359.072ZM129.548 369.324L132.409 369.967V369.687L129.613 369.053L129.548 369.324ZM129.958 367.534L132.409 368.084V367.804L130.014 367.208L129.958 367.534ZM132.409 389.38L129.613 388.681L129.548 388.952L132.344 389.669L132.409 389.38ZM130.107 386.901L130.042 387.171L132.409 387.768V387.488L130.107 386.901ZM132.409 397.517V397.218L130.545 397.843L130.629 398.104L132.409 397.517ZM132.409 395.578V395.289L129.949 396.1L130.032 396.361L132.409 395.578ZM126.5 401.17L126.267 401.04L124.981 403.286H125.298L126.5 401.17ZM128.094 402.102L127.861 401.962L127.097 403.304H127.414L128.094 402.102ZM113.033 400.9L114.99 403.304H115.353L113.247 400.723L113.033 400.9ZM114.449 399.735L117.367 403.304H117.721L114.664 399.576L114.449 399.735ZM109.23 402.261L108.969 402.354L109.314 403.286H109.612L109.23 402.261ZM105.223 347.179L106.155 348.372L105.223 347.133V347.179ZM99.4349 349.258L101.625 355.297L101.877 355.204L99.7238 349.071L99.4349 349.258ZM101.168 348.633L103.349 354.673L103.61 354.579L101.429 348.54L101.168 348.633ZM123.956 393.146L118.038 390.638L117.935 390.89L123.853 393.397L123.956 393.146ZM123.238 394.842L117.329 392.325L117.217 392.586L123.136 395.093L123.238 394.842ZM123.956 376.742L122.204 382.931L122.465 383.005L124.217 376.817L123.956 376.742ZM125.988 377.32L125.717 377.246L123.974 383.425L124.235 383.499L125.988 377.32ZM116.509 377.982L114.645 371.831L114.384 371.905L116.248 378.066L116.509 377.982ZM118.261 377.451L116.397 371.299L116.136 371.374L118 377.535L118.261 377.451ZM99.8822 361.495L99.6492 361.355L96.4525 366.947L96.6948 367.078L99.8822 361.495ZM98.2885 360.563L98.0555 360.423L94.8587 366.015L95.1011 366.146L98.2885 360.563ZM115.316 366.276L109.398 363.769L109.295 364.021L115.214 366.537L115.316 366.276ZM116.034 364.589L110.116 362.082L110.013 362.334L115.931 364.841L116.034 364.589ZM104.906 393.63L111.271 392.698V392.428L104.906 393.36V393.63ZM105.167 395.448L111.532 394.516V394.245L105.167 395.177V395.448ZM109.827 387.619L110.097 387.675L111.532 381.412L111.262 381.346L109.827 387.619ZM113.051 381.757L111.616 388.029L111.886 388.085L113.322 381.822L113.051 381.757ZM95.5298 370.666L93.0786 371.738L93.1718 371.998L95.6416 370.917L95.5298 370.666ZM96.2567 372.353L93.6751 373.48L93.7683 373.741L96.3686 372.604L96.2567 372.353ZM104.645 366.761L106.509 372.921L106.779 372.837L104.915 366.686L104.645 366.761ZM102.883 367.292L104.747 373.443L105.018 373.369L103.154 367.217L102.883 367.292ZM88.8101 355.372L88.9778 355.586L94.1131 351.718L93.9454 351.494L88.8101 355.372ZM95.2222 353.181L95.0545 352.967L89.9191 356.835L90.0869 357.059L95.2222 353.181ZM104.924 384.786L99.0061 382.278L98.8943 382.53L104.812 385.037L104.924 384.786ZM99.6119 380.834L105.53 383.341L105.642 383.089L99.7238 380.536L99.6119 380.834ZM129.921 408.328L129.79 408.57L130.023 408.384L129.921 408.328ZM130.787 406.715L130.657 406.958L131.337 407.321L131.561 407.126L130.787 406.715ZM120.228 413.445H120.507L120.89 409.996H120.619L120.228 413.445ZM118.364 413.128L118.634 413.212L119.016 409.791H118.746L118.364 413.128ZM125.251 403.211H124.934L123.07 406.538L123.303 406.678L125.251 403.211ZM127.367 403.211H127.05L124.618 407.452L124.86 407.592L127.367 403.211ZM117.059 405.783L117.264 405.606L115.307 403.211H114.943L117.059 405.783ZM118.476 404.618L118.69 404.441L117.674 403.211H117.32L118.476 404.618ZM109.267 403.211L110.6 406.939L111.113 407.536L109.566 403.248L109.267 403.211Z" fill="white"/>
<path d="M186.549 304.764C186.549 304.764 171.413 302.658 164.423 307.178C157.433 311.698 122.894 370.731 122.894 370.731L103.815 345.054L87.2725 352.482C87.2725 352.482 95.0267 382.493 104.048 397.424C113.07 412.354 118.215 413.864 121.309 413.37C130.517 411.907 157.191 381.048 157.191 381.048L166.884 413.295L160.304 436.735H282.862L267.997 411.944C267.997 411.944 287.391 322.472 282.452 312.994C277.512 303.515 248.732 304.764 239.682 304.764H213.773C209.846 305.543 205.856 305.955 201.853 305.994C196.734 305.845 191.626 305.435 186.549 304.764Z" stroke="#263238" stroke-width="0.985332"/>
<path d="M157.201 381.048C153.652 373.959 152.275 365.98 153.24 358.112C155.038 345.558 162.811 331.811 162.811 331.811C162.811 331.811 147.303 354.179 147.303 361.635C147.303 369.091 151.916 379.995 151.916 379.995L147.89 391.487L157.201 381.048Z" fill="#263238" stroke="#263238" stroke-width="0.985332" stroke-linecap="round" stroke-linejoin="round"/>
<path d="M199.383 292.396L199.793 305.556L188.693 305.966C188.693 305.966 186.4 354.253 196.279 362.893C206.158 371.533 235.982 304.764 235.982 304.764L225.73 302.704L222.441 275.975L199.383 292.396Z" fill="#CFCFCF" stroke="#263238" stroke-width="0.985332" stroke-linecap="round" stroke-linejoin="round"/>
<path d="M223.624 281.194L199.886 303.562V295.649L223.624 281.194Z" fill="#263238" stroke="#263238" stroke-width="0.985332" stroke-linecap="round" stroke-linejoin="round"/>
<path d="M196.279 362.893C196.279 362.893 197.472 355.12 203.446 344.961L196.279 362.893Z" fill="white"/>
<path d="M196.279 362.893C196.279 362.893 197.472 355.12 203.446 344.961" stroke="#263238" stroke-width="0.985332" stroke-linecap="round" stroke-linejoin="round"/>
<path d="M194.602 218.19L167.574 246.29C169.697 252.271 170.726 258.585 170.612 264.93C170.295 274.884 179.345 289.526 186.745 296.329C194.145 303.133 209.243 292.676 214.882 288.985C218.648 286.433 222.159 283.524 225.367 280.299C227.424 280.21 229.424 279.6 231.181 278.528C232.938 277.455 234.395 275.955 235.414 274.166C235.414 274.166 196.14 232.198 194.602 218.19Z" fill="#CFCFCF" stroke="#263238" stroke-width="0.985332" stroke-linecap="round" stroke-linejoin="round"/>
<path d="M187.276 247.045C188.21 248.949 188.815 250.997 189.065 253.103C189.149 255.704 184.592 267.885 185.244 268.696C185.897 269.507 187.938 272.191 189.531 271.846" stroke="#263238" stroke-width="0.985332" stroke-linecap="round" stroke-linejoin="round"/>
<path d="M198.516 260.363C202.324 258.936 206.512 258.887 210.353 260.223" stroke="#263238" stroke-width="0.492666" stroke-linecap="round" stroke-linejoin="round"/>
<path d="M177.48 261.333C179.516 260.761 181.62 260.466 183.734 260.457" stroke="#263238" stroke-width="0.492666" stroke-linecap="round" stroke-linejoin="round"/>
<path d="M183.865 240.157C182.82 240.08 181.772 240.245 180.802 240.639C179.832 241.034 178.966 241.647 178.273 242.432C175.933 245.125 174.796 247.474 174.209 245.572C173.622 243.671 176.232 240.176 177.154 239.468C178.077 238.76 182.401 235.982 183.865 240.157Z" fill="#263238"/>
<path d="M195.431 238.592C198.173 238.582 200.878 239.22 203.325 240.456C206.895 242.413 205.189 238.443 202.682 237.306C200.175 236.169 195.832 236.281 195.431 238.592Z" fill="#263238"/>
<path d="M236.812 285.332C236.979 288.128 235.535 290.458 233.606 290.569C231.676 290.681 229.971 288.519 229.803 285.742C229.635 282.964 230.8 275.797 232.73 275.685C234.659 275.574 236.653 282.545 236.812 285.332Z" fill="#FFC984" stroke="#263238" stroke-width="0.985332" stroke-linecap="round" stroke-linejoin="round"/>
<path d="M182.756 256.3C182.886 258.164 182.178 259.674 181.181 259.739C180.183 259.804 179.317 258.378 179.158 256.552C179 254.725 179.736 253.178 180.733 253.112C181.731 253.047 182.672 254.51 182.756 256.3Z" fill="#263238"/>
<path d="M202.869 255.582C202.999 257.446 202.291 258.947 201.303 259.021C200.315 259.096 199.439 257.661 199.271 255.824C199.103 253.988 199.858 252.46 200.846 252.395C201.834 252.329 202.747 253.755 202.869 255.582Z" fill="#263238"/>
<path d="M189.401 277.149C189.401 277.149 194.145 278.668 200.585 273.16" stroke="#263238" stroke-width="0.985332" stroke-linecap="round" stroke-linejoin="round"/>
<path d="M103.816 345.073L95.1387 333.451C94.7379 330.357 93.9644 323.963 93.8339 319.648C93.6568 313.776 93.9457 310.188 90.6092 304.978C87.2726 299.769 77.9619 291.539 77.0858 289.628C76.2098 287.718 73.6747 293.105 75.2684 296.6C76.8622 300.095 78.3161 301.167 78.3161 301.167C78.3161 301.167 61.1766 292.648 60.6081 294.037C60.0396 295.425 68.586 319.984 72.5004 326.461C74.1314 329.164 78.6516 332.78 80.8325 335.911C81.8991 337.457 82.8137 339.102 83.5632 340.823C85.595 349.463 87.9623 358.969 89.1552 359.314C91.8674 360.106 103.378 360.293 103.816 345.073Z" fill="#CFCFCF" stroke="#263238" stroke-width="0.985332" stroke-miterlimit="10"/>
<path d="M79.4532 318.371C79.2965 318.413 79.133 318.424 78.9722 318.403C78.8113 318.382 78.6563 318.329 78.5159 318.247C78.3756 318.166 78.2528 318.057 78.1545 317.928C78.0562 317.799 77.9844 317.652 77.9433 317.495L64.3082 267.083C64.2352 266.778 64.2815 266.457 64.4374 266.185C64.5932 265.913 64.847 265.711 65.147 265.62C65.462 265.537 65.7971 265.581 66.0796 265.744C66.3622 265.906 66.5695 266.173 66.6568 266.487L80.3292 316.88C80.4063 317.194 80.3579 317.525 80.1942 317.804C80.0306 318.082 79.7647 318.286 79.4532 318.371Z" fill="#263238" stroke="#263238" stroke-width="0.985332" stroke-miterlimit="10"/>
<path d="M69.6203 286.301C69.6203 286.301 56.4605 293.254 57.2713 294.615C58.0822 295.975 60.4867 300.831 61.5865 300.719C62.6863 300.607 70.6735 294.083 71.2513 293.263C71.8292 292.443 69.6203 286.301 69.6203 286.301Z" fill="#CFCFCF" stroke="#263238" stroke-width="0.985332" stroke-miterlimit="10"/>
<path d="M71.9689 294.838C71.9689 294.838 61.0366 302.9 61.3907 304.075C61.7449 305.249 67.1039 319.145 68.0359 320.273C68.9679 321.4 77.5237 317.477 77.5237 317.477L71.9689 294.838Z" fill="#CFCFCF" stroke="#263238" stroke-width="0.985332" stroke-miterlimit="10"/>
<path d="M73.6282 302.332C73.6282 302.332 63.1618 310.552 63.8515 310.813" stroke="#263238" stroke-width="0.985332" stroke-miterlimit="10"/>
<path d="M75.6037 311.241L66.8057 316.395" stroke="#263238" stroke-width="0.985332" stroke-miterlimit="10"/>
<path d="M78.2881 301.167L83.1158 305.882C83.1158 305.882 76.7037 319.573 82.8456 327.132" stroke="#263238" stroke-width="0.985332" stroke-miterlimit="10"/>
<path d="M268.779 307.681C268.779 307.681 280.495 306.153 285.555 315.836C290.616 325.52 322.239 411.105 322.751 419.288C323.264 427.471 301.856 429.475 294.726 425.915C287.596 422.355 267.698 380.06 265.685 374.45" fill="#FFC984"/>
<path d="M272.504 366.945L270.768 373.119L271.036 373.194L272.772 367.021L272.504 366.945Z" fill="white"/>
<path d="M276.552 349.537L274.772 343.358L274.502 343.442L276.291 349.612L276.552 349.537Z" fill="white"/>
<path d="M275.681 367.558L273.926 373.745L274.195 373.821L275.95 367.634L275.681 367.558Z" fill="white"/>
<path d="M278.379 363.508L274.306 358.531L274.092 358.708L278.165 363.676L278.379 363.508Z" fill="white"/>
<path d="M287.169 370.176L281.275 372.748L281.387 373.004L287.281 370.432L287.169 370.176Z" fill="white"/>
<path d="M286.618 377.591L286.385 377.441L282.946 382.875L283.179 383.024L286.618 377.591Z" fill="white"/>
<path d="M272.74 343.945L274.52 350.124L274.791 350.04L273.001 343.871L272.74 343.945Z" fill="white"/>
<path d="M281.389 381.887L281.622 382.036L285.061 376.612L284.828 376.463L281.389 381.887Z" fill="white"/>
<path d="M279.795 362.343L275.732 357.366L275.518 357.543L279.581 362.511L279.795 362.343Z" fill="white"/>
<path d="M285.959 350.743L280.819 354.607L280.987 354.83L286.127 350.967L285.959 350.743Z" fill="white"/>
<path d="M284.67 323.376L286.525 329.536L286.786 329.452L284.94 323.301L284.67 323.376Z" fill="white"/>
<path d="M285.015 349.519L284.847 349.295L279.712 353.163L279.88 353.386L285.015 349.519Z" fill="white"/>
<path d="M281.622 315.948L283.551 312.9C283.486 312.835 283.43 312.761 283.365 312.686L281.389 315.799L281.622 315.948Z" fill="white"/>
<path d="M275.984 327.551L276.208 327.719L280.113 322.612L279.898 322.444L275.984 327.551Z" fill="white"/>
<path d="M279.488 335.93L285.406 338.437L285.518 338.185L279.6 335.678L279.488 335.93Z" fill="white"/>
<path d="M286.432 322.845L288.286 329.005L288.547 328.921L286.702 322.77L286.432 322.845Z" fill="white"/>
<path d="M286.04 364.002L289.237 358.419L288.995 358.289L285.807 363.862L286.04 364.002Z" fill="white"/>
<path d="M278.89 337.392L278.785 337.641L284.705 340.153L284.81 339.904L278.89 337.392Z" fill="white"/>
<path d="M286.418 368.529L280.523 371.1L280.635 371.356L286.53 368.785L286.418 368.529Z" fill="white"/>
<path d="M301.036 426.045L300.934 426.297L303.907 427.564H304.634L301.036 426.045Z" fill="white"/>
<path d="M302.322 406.054L300.514 401.049L300.141 400.014L299.88 400.107L300.225 401.049L302.061 406.147L302.322 406.054Z" fill="white"/>
<path d="M296.134 411.049L300.207 416.026L300.412 415.849L296.348 410.872L296.134 411.049Z" fill="white"/>
<path d="M300.589 406.678L298.566 401.049L298.408 400.639L298.156 400.723L298.268 401.049L300.337 406.771L300.589 406.678Z" fill="white"/>
<path d="M302.397 392.129L296.031 393.024L296.069 393.294L302.434 392.4L302.397 392.129Z" fill="white"/>
<path d="M320.888 419.605L322.612 418.114L322.556 417.806L320.692 419.4L320.888 419.605Z" fill="white"/>
<path d="M274.53 326.433L274.744 326.601L278.659 321.493L278.435 321.326L274.53 326.433Z" fill="white"/>
<path d="M267.193 360.232L266.93 360.327L269.114 366.376L269.377 366.281L267.193 360.232Z" fill="white"/>
<path d="M319.676 418.216L322.137 416.091C322.106 415.993 322.081 415.894 322.062 415.793L319.499 418.011L319.676 418.216Z" fill="white"/>
<path d="M301.837 414.684L297.765 409.716L297.55 409.884L301.623 414.861L301.837 414.684Z" fill="white"/>
<path d="M268.453 343.707L268.079 350.126L268.358 350.143L268.732 343.723L268.453 343.707Z" fill="white"/>
<path d="M297.653 370.638L295.807 364.486L295.537 364.561L297.392 370.721L297.653 370.638Z" fill="white"/>
<path d="M292.334 346.275L292.08 346.367L294.263 352.416L294.517 352.325L292.334 346.275Z" fill="white"/>
<path d="M291.399 334.933L290.514 338.428L290.784 338.493L291.688 334.933L292.368 332.258L292.098 332.193L291.399 334.933Z" fill="white"/>
<path d="M289.507 334.933L288.733 337.971L289.004 338.036L289.787 334.933L290.588 331.81L290.318 331.745L289.507 334.933Z" fill="white"/>
<path d="M293.776 365.092L295.631 371.243L295.892 371.169L294.046 365.008L293.776 365.092Z" fill="white"/>
<path d="M290.592 346.926L290.338 347.018L292.522 353.066L292.776 352.975L290.592 346.926Z" fill="white"/>
<path d="M268.933 359.591L268.67 359.686L270.852 365.735L271.115 365.64L268.933 359.591Z" fill="white"/>
<path d="M283.179 316.88L284.745 314.41L284.577 314.149L282.946 316.74L283.179 316.88Z" fill="white"/>
<path d="M290.514 378.634L296.432 381.142L296.534 380.89L290.616 378.383L290.514 378.634Z" fill="white"/>
<path d="M274.25 312.164L274.008 312.024L270.811 317.598L271.053 317.738L274.25 312.164Z" fill="white"/>
<path d="M317.812 401.972L317.691 401.627L315.594 405.299L315.827 405.43L317.812 401.972Z" fill="white"/>
<path d="M311.8 407.843L311.53 407.815L310.803 414.2L311.083 414.228L311.8 407.843Z" fill="white"/>
<path d="M308.28 390.203L308.175 390.452L314.095 392.964L314.2 392.715L308.28 390.203Z" fill="white"/>
<path d="M316.2 401.049L317.01 399.642L316.899 399.288L315.883 401.049L313.972 404.386L314.214 404.516L316.2 401.049Z" fill="white"/>
<path d="M312.313 418.645L312.099 418.468L308.054 423.463L308.268 423.64L312.313 418.645Z" fill="white"/>
<path d="M313.907 390.573L308.986 388.485L308.883 388.737L314.028 390.918L313.907 390.573Z" fill="white"/>
<path d="M310.878 417.49L310.663 417.312L306.628 422.308L306.842 422.485L310.878 417.49Z" fill="white"/>
<path d="M304.223 379.669L303.953 379.604L302.518 385.867L302.788 385.932L304.223 379.669Z" fill="white"/>
<path d="M308.007 403.631L308.222 403.453L306.255 401.049L304.149 398.477L303.935 398.654L305.901 401.049L308.007 403.631Z" fill="white"/>
<path d="M272.405 318.511L272.647 318.651L275.844 313.068L275.602 312.938L272.405 318.511Z" fill="white"/>
<path d="M290.59 413.038L290.336 413.129L292.52 419.178L292.774 419.086L290.59 413.038Z" fill="white"/>
<path d="M314.923 424.563L314.653 424.489L314.159 426.427L314.466 426.343L314.923 424.563Z" fill="white"/>
<path d="M292.341 412.391L292.086 412.482L294.269 418.532L294.523 418.44L292.341 412.391Z" fill="white"/>
<path d="M300.924 360.181L303.385 361.225C303.385 361.103 303.292 360.982 303.254 360.87L301.027 359.938L300.924 360.181Z" fill="white"/>
<path d="M316.703 424.992L316.433 424.927L316.209 425.794L316.526 425.682L316.703 424.992Z" fill="white"/>
<path d="M284.801 405.998L279.917 403.929L280.122 404.311L284.689 406.249L284.801 405.998Z" fill="white"/>
<path d="M268.108 322.248L271.286 325.557L271.492 325.37L268.127 321.875L268.108 322.248Z" fill="white"/>
<path d="M296.134 344.933L298.315 347.589L298.007 346.788L296.376 344.756L296.134 344.933Z" fill="white"/>
<path d="M269.963 326.834L270.159 326.638L268.015 324.401L267.997 324.783L269.963 326.834Z" fill="white"/>
<path d="M305.333 369.752L307.187 375.913L307.448 375.829L305.603 369.678L305.333 369.752Z" fill="white"/>
<path d="M285.518 404.311L279.6 401.794L279.488 402.046L285.406 404.562L285.518 404.311Z" fill="white"/>
<path d="M278.659 387.619L278.435 387.451L274.53 392.549L274.744 392.717L278.659 387.619Z" fill="white"/>
<path d="M288.547 395.047L286.702 388.886L286.432 388.97L288.286 395.121L288.547 395.047Z" fill="white"/>
<path d="M286.786 395.578L284.94 389.417L284.67 389.501L286.525 395.653L286.786 395.578Z" fill="white"/>
<path d="M280.113 388.728L279.898 388.569L275.984 393.667L276.208 393.835L280.113 388.728Z" fill="white"/>
<path d="M270.718 337.934L270.988 338.008L271.855 334.933L272.731 331.829L272.47 331.745L271.566 334.933L270.718 337.934Z" fill="white"/>
<path d="M269.656 334.933L268.947 337.44L269.218 337.515L269.945 334.933L270.96 331.326L270.699 331.251L269.656 334.933Z" fill="white"/>
<path d="M274.25 378.28L274.008 378.14L270.811 383.723L271.053 383.853L274.25 378.28Z" fill="white"/>
<path d="M275.844 379.194L275.602 379.054L272.405 384.636L272.647 384.767L275.844 379.194Z" fill="white"/>
<path d="M290.598 359.202L287.401 364.776L287.634 364.915L290.831 359.333L290.598 359.202Z" fill="white"/>
<path d="M302.164 379.193L300.729 385.456L300.999 385.522L302.434 379.259L302.164 379.193Z" fill="white"/>
<path d="M304.121 363.228L300.309 361.616L300.207 361.867L304.251 363.582C304.205 363.48 304.168 363.349 304.121 363.228Z" fill="white"/>
<path d="M302.182 390.582L302.145 390.312L295.779 391.207L295.817 391.477L302.182 390.582Z" fill="white"/>
<path d="M305.575 397.312L305.36 397.489L308.277 401.049L309.433 402.465L309.648 402.288L308.632 401.049L305.575 397.312Z" fill="white"/>
<path d="M291.688 401.049L292.368 398.384L292.098 398.318L291.399 401.049L290.514 404.544L290.784 404.609L291.688 401.049Z" fill="white"/>
<path d="M289.904 380.101L289.798 380.35L295.718 382.862L295.824 382.613L289.904 380.101Z" fill="white"/>
<path d="M289.787 401.049L290.588 397.927L290.318 397.861L289.507 401.049L288.733 404.087L289.004 404.162L289.787 401.049Z" fill="white"/>
<path d="M309.256 414.023L309.974 407.638L309.704 407.61L308.977 413.995L309.256 414.023Z" fill="white"/>
<path d="M268.779 307.681C268.779 307.681 280.495 306.153 285.555 315.836C290.616 325.52 322.239 411.105 322.751 419.288C323.264 427.471 301.856 429.475 294.726 425.915C287.596 422.355 267.698 380.06 265.685 374.45" stroke="#263238" stroke-width="0.985332"/>
<path d="M197.957 424.358C197.957 424.358 174.014 421.301 169.932 421.804C165.85 422.308 147.517 434.545 147.517 434.545H199.448L197.957 424.358Z" fill="#CFCFCF" stroke="#263238" stroke-width="0.985332" stroke-linecap="round" stroke-linejoin="round"/>
<path d="M296.795 408.048L198.003 424.358L199.448 434.545H321.26C322.208 429.503 322.719 424.39 322.789 419.26C322.789 411.618 318.203 402.959 318.203 402.959" fill="#FFC984"/>
<path d="M304.979 424.871L306.833 431.022L307.094 430.948L305.249 424.787L304.979 424.871Z" fill="white"/>
<path d="M311.745 407.461L307.7 412.456L307.914 412.634L311.959 407.638L311.745 407.461Z" fill="white"/>
<path d="M306.274 411.301L306.488 411.478L310.524 406.482L310.31 406.305L306.274 411.301Z" fill="white"/>
<path d="M293.421 420.202L295.276 426.362L295.537 426.278L293.692 420.127L293.421 420.202Z" fill="white"/>
<path d="M308.855 430.416L307.001 424.256L306.74 424.34L308.594 430.491L308.855 430.416Z" fill="white"/>
<path d="M297.299 425.756L295.453 419.596L295.183 419.68L297.038 425.831L297.299 425.756Z" fill="white"/>
<path d="M314.305 413.486L312.722 419.719L312.993 419.788L314.576 413.555L314.305 413.486Z" fill="white"/>
<path d="M313.17 434.545H313.459L314.811 429.773L314.54 429.699L313.17 434.545Z" fill="white"/>
<path d="M290.262 433.492L290.16 433.743L292.042 434.545H292.751L290.262 433.492Z" fill="white"/>
<path d="M316.061 413.893L314.477 420.126L314.748 420.195L316.332 413.962L316.061 413.893Z" fill="white"/>
<path d="M268.57 414.7L268.307 414.794L270.49 420.844L270.753 420.749L268.57 414.7Z" fill="white"/>
<path d="M299.853 416.986L305.761 419.493L305.873 419.241L299.955 416.725L299.853 416.986Z" fill="white"/>
<path d="M301.809 434.312L301.753 434.545H302.033L302.08 434.368L301.809 434.312Z" fill="white"/>
<path d="M300.673 415.059L300.568 415.308L306.488 417.819L306.593 417.57L300.673 415.059Z" fill="white"/>
<path d="M273.738 413.817L277.811 418.794L278.025 418.617L273.952 413.64L273.738 413.817Z" fill="white"/>
<path d="M279.441 417.452L275.369 412.484L275.164 412.652L279.227 417.629L279.441 417.452Z" fill="white"/>
<path d="M319.331 407.21L319.899 406.716L319.788 406.445L319.154 407.005L319.331 407.21Z" fill="white"/>
<path d="M273.559 422.172L271.803 428.358L272.072 428.435L273.828 422.248L273.559 422.172Z" fill="white"/>
<path d="M320.515 420.444L322.761 420.956C322.761 420.863 322.761 420.77 322.761 420.677L320.561 420.173L320.515 420.444Z" fill="white"/>
<path d="M286.031 432.56L284.772 434.545H285.099L286.264 432.699L286.031 432.56Z" fill="white"/>
<path d="M322.695 422.541L320.17 421.972L320.104 422.233L322.677 422.82C322.686 422.727 322.695 422.634 322.695 422.541Z" fill="white"/>
<path d="M320.534 408.598L320.599 408.542L320.496 408.263L320.356 408.393L320.534 408.598Z" fill="white"/>
<path d="M286.061 423.632L280.166 426.202L280.278 426.458L286.173 423.888L286.061 423.632Z" fill="white"/>
<path d="M284.707 431.721L284.474 431.572L282.592 434.545H282.918L284.707 431.721Z" fill="white"/>
<path d="M275.346 422.722L273.591 428.908L273.86 428.985L275.615 422.798L275.346 422.722Z" fill="white"/>
<path d="M286.815 425.293L280.921 427.864L281.033 428.121L286.927 425.549L286.815 425.293Z" fill="white"/>
<path d="M290.476 414.451L290.243 414.311L287.046 419.894L287.279 420.034L290.476 414.451Z" fill="white"/>
<path d="M285.453 418.981L285.686 419.111L288.883 413.538L288.641 413.398L285.453 418.981Z" fill="white"/>
<path d="M219.948 423.637L214.053 426.207L214.165 426.463L220.06 423.893L219.948 423.637Z" fill="white"/>
<path d="M207.78 433.389L207.538 433.259L206.801 434.545H207.118L207.78 433.389Z" fill="white"/>
<path d="M205.953 428.441L207.556 422.774L207.258 422.821L205.692 428.366L205.953 428.441Z" fill="white"/>
<path d="M209.374 434.303L209.131 434.172L208.917 434.545H209.234L209.374 434.303Z" fill="white"/>
<path d="M240.363 417.797L240.475 417.545L240.12 417.405L239.617 417.48L240.363 417.797Z" fill="white"/>
<path d="M247.055 434.545H247.344L248.686 429.773L248.425 429.699L247.055 434.545Z" fill="white"/>
<path d="M249.468 415.858L248.378 420.164L248.639 420.239L249.767 415.812L249.468 415.858Z" fill="white"/>
<path d="M218.591 431.721L218.358 431.572L216.476 434.545H216.802L218.591 431.721Z" fill="white"/>
<path d="M220.147 432.699L219.914 432.56L218.647 434.545H218.973L220.147 432.699Z" fill="white"/>
<path d="M275.248 434.172L275.033 434.545H275.35L275.49 434.303L275.248 434.172Z" fill="white"/>
<path d="M316.311 430.202L315.081 434.545H315.37L316.572 430.276L316.311 430.202Z" fill="white"/>
<path d="M266.84 415.338L266.577 415.433L268.76 421.481L269.023 421.386L266.84 415.338Z" fill="white"/>
<path d="M250.186 430.202L248.965 434.545H249.245L250.457 430.276L250.186 430.202Z" fill="white"/>
<path d="M224.146 433.492L224.034 433.743L225.926 434.545H226.625L224.146 433.492Z" fill="white"/>
<path d="M273.896 433.389L273.654 433.259L272.917 434.545H273.234L273.896 433.389Z" fill="white"/>
<path d="M207.804 422.291L206.068 428.465L206.336 428.54L208.073 422.367L207.804 422.291Z" fill="white"/>
<path d="M260.82 426.968L260.559 426.865L258.21 432.849L258.462 432.951L260.82 426.968Z" fill="white"/>
<path d="M220.682 425.317L214.787 427.888L214.899 428.144L220.794 425.574L220.682 425.317Z" fill="white"/>
<path d="M262.526 427.629L262.265 427.536L259.916 433.52L260.177 433.613L262.526 427.629Z" fill="white"/>
<path d="M253.989 422.242L256.841 422.886L260.252 423.65L260.317 423.379L256.841 422.597L254.045 421.972L253.989 422.242Z" fill="white"/>
<path d="M260.662 421.86L260.727 421.59L256.84 420.714L254.454 420.173L254.389 420.444L256.84 420.994L260.662 421.86Z" fill="white"/>
<path d="M246.868 419.782L247.791 416.138L247.492 416.185L246.598 419.717L246.868 419.782Z" fill="white"/>
<path d="M239.757 419.242L236.737 417.956L236.234 418.039L239.645 419.493L239.757 419.242Z" fill="white"/>
<path d="M230.912 425.831L231.183 425.756L229.328 419.596L229.067 419.68L230.912 425.831Z" fill="white"/>
<path d="M229.421 426.278L227.567 420.127L227.306 420.202L229.16 426.362L229.421 426.278Z" fill="white"/>
<path d="M238.862 424.871L240.717 431.022L240.978 430.948L239.123 424.787L238.862 424.871Z" fill="white"/>
<path d="M235.684 434.312L235.628 434.545H235.917L235.955 434.368L235.684 434.312Z" fill="white"/>
<path d="M242.739 430.416L240.884 424.256L240.624 424.34L242.469 430.491L242.739 430.416Z" fill="white"/>
<path d="M296.795 408.048L198.003 424.358L199.448 434.545H321.26C322.208 429.503 322.719 424.39 322.789 419.26C322.789 411.618 318.203 402.959 318.203 402.959" stroke="#263238" stroke-width="0.985332"/>
<path d="M318.52 432.895H195.72L191.694 365.344C191.584 364.686 191.619 364.012 191.796 363.369C191.973 362.726 192.288 362.129 192.719 361.62C193.15 361.111 193.687 360.702 194.292 360.421C194.897 360.14 195.556 359.995 196.223 359.994H317.998C318.666 359.993 319.326 360.138 319.932 360.418C320.537 360.698 321.075 361.107 321.506 361.617C321.938 362.126 322.252 362.723 322.429 363.367C322.605 364.011 322.639 364.686 322.528 365.344L318.52 432.895Z" fill="#263238" stroke="#263238" stroke-width="0.985332" stroke-linecap="round" stroke-linejoin="round"/>
<path d="M201.75 361.616H317.113C317.764 361.609 318.409 361.745 319.003 362.013C319.596 362.281 320.124 362.676 320.549 363.169C320.975 363.663 321.287 364.243 321.464 364.87C321.642 365.497 321.68 366.155 321.577 366.798" stroke="white" stroke-width="0.985332" stroke-linecap="round" stroke-linejoin="round"/>
<path d="M192.607 365.763C192.694 364.629 193.208 363.571 194.045 362.801C194.883 362.031 195.981 361.608 197.118 361.616" stroke="white" stroke-width="0.985332" stroke-linecap="round" stroke-linejoin="round"/>
<path d="M319.033 426.315H195.189V432.895H319.033V426.315Z" fill="white" stroke="#263238" stroke-width="0.985332" stroke-linecap="round" stroke-linejoin="round"/>
<path d="M265.452 396.715C265.452 399.623 261.519 401.981 256.673 401.981C251.827 401.981 247.903 399.623 247.903 396.715C247.903 393.807 251.836 391.449 256.673 391.449C261.51 391.449 265.452 393.807 265.452 396.715Z" fill="white" stroke="#263238" stroke-width="0.985332" stroke-linecap="round" stroke-linejoin="round"/>
<path d="M73.5719 426.11C70.9691 425.981 68.4128 425.372 66.032 424.312C65.4256 424.02 64.9553 423.505 64.7194 422.875C64.4836 422.245 64.5003 421.548 64.7661 420.929C65.0319 420.311 65.5263 419.819 66.146 419.557C66.7657 419.295 67.4628 419.282 68.0917 419.521C70.4963 420.546 73.5812 421.18 74.4107 420.826C75.9205 419.12 78.2599 408.822 75.2402 403.91C75.0816 403.564 74.8423 403.26 74.5424 403.025C74.2424 402.79 73.8904 402.63 73.516 402.559C71.8011 402.326 69.2661 404.087 68.3714 404.926C67.8612 405.37 67.1988 405.598 66.5236 405.563C65.8485 405.528 65.2132 405.232 64.7518 404.738C64.2903 404.244 64.0386 403.59 64.0497 402.914C64.0607 402.238 64.3337 401.593 64.8111 401.114C65.2864 400.667 69.6109 396.78 74.2057 397.386C75.3462 397.557 76.4325 397.986 77.3809 398.642C78.3294 399.298 79.1147 400.163 79.6765 401.17C84.1222 408.402 81.0838 422.196 77.6634 424.899C76.4759 425.754 75.0335 426.181 73.5719 426.11Z" fill="#263238" stroke="#263238" stroke-width="0.985332" stroke-linecap="round" stroke-linejoin="round"/>
<path d="M68.9587 395.261H40.2065V433.427H68.9587V395.261Z" fill="#263238" stroke="#263238" stroke-width="0.985332" stroke-linecap="round" stroke-linejoin="round"/>
<path d="M42.8159 393.173C42.8159 393.173 42.8159 389.995 48.6409 386.817C54.4659 383.639 57.644 378.876 54.4659 369.873C51.2878 360.87 51.819 354.514 58.1939 349.211" stroke="#263238" stroke-width="0.985332" stroke-linecap="round" stroke-linejoin="round"/>
<path d="M44.1396 359.295C44.4379 355.427 46.1621 352.156 49.7316 349.211" stroke="#263238" stroke-width="0.985332" stroke-linecap="round" stroke-linejoin="round"/>
<path d="M45.9942 369.874C45.4123 368.268 44.9421 366.623 44.5869 364.953" stroke="#263238" stroke-width="0.985332" stroke-linecap="round" stroke-linejoin="round"/>
<path d="M66.4701 372.977C66.2469 371.923 65.9511 370.886 65.5847 369.873L65.1001 368.438" stroke="#263238" stroke-width="0.985332" stroke-linecap="round" stroke-linejoin="round"/>
<path d="M53.9351 393.174C53.9351 393.174 53.9351 389.995 59.7601 386.817C63.5813 384.73 66.2841 381.962 66.7594 377.768" stroke="#263238" stroke-width="0.985332" stroke-linecap="round" stroke-linejoin="round"/>
<path d="M447.388 432.774H13.5977V442.374H447.388V432.774Z" fill="#263238"/>
</svg>
