<svg width="462" height="462" viewBox="0 0 462 462" fill="none" xmlns="http://www.w3.org/2000/svg">
<path d="M428.006 297.666H276.571V210.034H428.006V297.666ZM277.495 296.742H427.082V210.958H277.495V296.742Z" fill="#E0E0E0"/>
<path d="M396.766 256.761H296.854V259.69H396.766V256.761Z" fill="#F0F0F0"/>
<path d="M403.649 267.683H296.854V270.88H403.649V267.683Z" fill="#F0F0F0"/>
<path d="M403.649 278.734H296.854V281.931H403.649V278.734Z" fill="#F0F0F0"/>
<path d="M331.771 240.896H296.854V248.501H331.771V240.896Z" fill="#F0F0F0"/>
<path d="M427.544 210.496H277.062V224.448H427.544V210.496Z" fill="#E0E0E0"/>
<path d="M241.663 36.96H91.1807V123.677H241.663V36.96Z" fill="#E6E6E6"/>
<path d="M210.894 83.2344H110.981V86.1635H210.894V83.2344Z" fill="#F0F0F0"/>
<path d="M217.777 94.1562H110.981V97.3533H217.777V94.1562Z" fill="#F0F0F0"/>
<path d="M217.777 105.207H110.981V108.404H217.777V105.207Z" fill="#F0F0F0"/>
<path d="M145.899 67.3691H110.981V74.9737H145.899V67.3691Z" fill="#F0F0F0"/>
<path d="M241.663 36.96H91.1807V50.9124H241.663V36.96Z" fill="#E0E0E0"/>
<path d="M229.577 48.7602C229.383 48.5846 231.323 46.2377 233.901 43.5396C236.479 40.8415 238.743 38.7995 238.928 38.9843C239.113 39.1691 237.181 41.5068 234.603 44.2049C232.025 46.903 229.762 48.9265 229.577 48.7602Z" fill="white"/>
<path d="M238.928 48.7602C238.743 48.945 236.488 46.9122 233.901 44.2049C231.314 41.4976 229.383 39.1691 229.577 38.9843C229.771 38.7995 232.016 40.8323 234.603 43.5396C237.191 46.247 239.122 48.5847 238.928 48.7602Z" fill="white"/>
<path d="M184.671 198.051H33.2642V110.409H184.671V198.051ZM34.1882 197.127H183.747V111.333H34.1882V197.127Z" fill="#E0E0E0"/>
<path d="M153.439 157.145H53.5273V160.074H153.439V157.145Z" fill="#F0F0F0"/>
<path d="M160.323 168.066H53.5273V171.263H160.323V168.066Z" fill="#F0F0F0"/>
<path d="M160.323 179.117H53.5273V182.314H160.323V179.117Z" fill="#F0F0F0"/>
<path d="M88.4453 141.28H53.5273V148.885H88.4453V141.28Z" fill="#F0F0F0"/>
<path d="M184.209 110.871H33.7261V124.823H184.209V110.871Z" fill="#E0E0E0"/>
<path d="M359.408 218.129H181.723V377.205H359.408V218.129Z" fill="#E6E6E6"/>
<path d="M190.658 168.02H51.4668V312.635H190.658V168.02Z" fill="#F0F0F0"/>
<path d="M190.658 168.02H51.4668V183.774H190.658V168.02Z" fill="#E0E0E0"/>
<path d="M62.9613 175.735C62.936 176.306 62.7434 176.857 62.4076 177.32C62.0718 177.783 61.6074 178.137 61.0721 178.338C60.5369 178.54 59.9543 178.579 59.3967 178.452C58.8391 178.326 58.331 178.038 57.9355 177.625C57.54 177.212 57.2744 176.692 57.1719 176.129C57.0693 175.567 57.1342 174.986 57.3585 174.46C57.5828 173.934 57.9566 173.486 58.4336 173.17C58.9105 172.855 59.4696 172.686 60.0415 172.686C60.8323 172.705 61.5833 173.037 62.1304 173.608C62.6775 174.179 62.9762 174.944 62.9613 175.735Z" fill="white"/>
<path d="M74.8166 175.735C74.7931 176.309 74.6012 176.863 74.265 177.329C73.9288 177.795 73.463 178.151 72.9256 178.355C72.3882 178.558 71.8029 178.598 71.2426 178.471C70.6824 178.344 70.1718 178.055 69.7745 177.64C69.3771 177.226 69.1106 176.703 69.008 176.138C68.9054 175.572 68.9713 174.989 69.1975 174.461C69.4237 173.933 69.8002 173.483 70.2802 173.168C70.7601 172.852 71.3223 172.684 71.8968 172.686C72.6876 172.705 73.4386 173.037 73.9857 173.608C74.5328 174.179 74.8315 174.944 74.8166 175.735Z" fill="white"/>
<path d="M86.6716 175.735C86.6481 176.309 86.4562 176.863 86.12 177.329C85.7837 177.795 85.3179 178.151 84.7805 178.355C84.2432 178.558 83.6579 178.598 83.0976 178.471C82.5373 178.344 82.0268 178.055 81.6294 177.64C81.2321 177.226 80.9656 176.703 80.863 176.138C80.7604 175.572 80.8263 174.989 81.0525 174.461C81.2787 173.933 81.6552 173.483 82.1351 173.168C82.6151 172.852 83.1773 172.684 83.7518 172.686C84.5426 172.705 85.2936 173.037 85.8407 173.608C86.3878 174.179 86.6865 174.944 86.6716 175.735Z" fill="white"/>
<path d="M408.131 68.5889H230.445V245.683H408.131V68.5889Z" fill="#F0F0F0"/>
<path d="M408.131 68.5889H230.445V89.3327H408.131V68.5889Z" fill="#E0E0E0"/>
<path d="M245.58 78.7528C245.548 79.5069 245.295 80.2349 244.852 80.8463C244.409 81.4576 243.797 81.9255 243.09 82.1918C242.384 82.4581 241.615 82.5111 240.879 82.3442C240.143 82.1772 239.472 81.7978 238.95 81.2529C238.427 80.708 238.076 80.0216 237.941 79.2791C237.805 78.5366 237.89 77.7705 238.186 77.0761C238.482 76.3817 238.976 75.7895 239.605 75.373C240.235 74.9565 240.973 74.7341 241.727 74.7334C242.771 74.7576 243.762 75.1942 244.484 75.9475C245.206 76.7008 245.6 77.7095 245.58 78.7528Z" fill="white"/>
<path d="M260.06 76.0358C260.572 76.5921 260.909 77.2868 261.029 78.0334C261.149 78.78 261.047 79.5455 260.736 80.2344C260.424 80.9234 259.916 81.5053 259.276 81.9078C258.636 82.3103 257.891 82.5155 257.135 82.4979C256.379 82.4802 255.645 82.2405 255.024 81.8086C254.404 81.3767 253.924 80.7717 253.644 80.0689C253.365 79.3662 253.299 78.5968 253.454 77.8566C253.609 77.1165 253.978 76.4382 254.516 75.9064C255.269 75.1898 256.275 74.801 257.314 74.8253C258.354 74.8495 259.341 75.2848 260.06 76.0358Z" fill="white"/>
<path d="M276.793 78.7528C276.761 79.5069 276.507 80.2349 276.065 80.8463C275.622 81.4576 275.01 81.9255 274.303 82.1918C273.597 82.4581 272.828 82.5111 272.092 82.3442C271.356 82.1772 270.685 81.7978 270.162 81.2529C269.64 80.708 269.289 80.0216 269.154 79.2791C269.018 78.5366 269.103 77.7705 269.399 77.0761C269.695 76.3817 270.188 75.7895 270.818 75.373C271.447 74.9565 272.185 74.7341 272.94 74.7334C273.984 74.7576 274.975 75.1942 275.697 75.9475C276.419 76.7008 276.813 77.7095 276.793 78.7528Z" fill="white"/>
<path d="M369.747 424.19C369.747 424.32 305.585 424.431 226.463 424.431C147.341 424.431 83.1504 424.32 83.1504 424.19C83.1504 424.061 147.304 423.95 226.463 423.95C305.622 423.95 369.747 424.07 369.747 424.19Z" fill="#263238"/>
<path d="M307.23 311.074C292.954 301.104 289.72 282.597 290.284 265.955C290.376 263.183 290.071 260.245 291.393 257.815C292.714 255.385 295.8 253.712 298.286 254.877C300.346 255.847 301.242 258.249 302.397 260.236C303.938 262.882 306.197 265.038 308.912 266.454C310.676 267.378 312.866 267.933 314.613 266.972C317.015 265.65 317.292 262.352 317.274 259.58C317.274 254.424 317.243 249.274 317.181 244.13C317.015 241.368 317.296 238.598 318.013 235.925C318.872 233.301 320.785 230.871 323.4 230.132C326.015 229.393 329.276 230.917 329.868 233.615C329.97 234.758 329.997 235.906 329.951 237.053C330.025 238.208 330.561 239.473 331.642 239.825C332.723 240.176 333.85 239.372 334.682 238.559C337.528 235.787 339.468 232.174 341.27 228.607C343.072 225.041 344.837 221.372 347.424 218.332C350.011 215.292 353.587 212.881 357.588 212.65C361.589 212.419 365.756 214.877 366.754 218.757C367.752 222.638 365.488 226.602 363.058 229.753C359.391 234.43 355.068 238.553 350.224 241.996C349.278 242.512 348.523 243.319 348.071 244.297C347.47 246.145 349.216 247.993 351.037 248.575C353.097 249.259 355.333 249.046 357.505 249.305C359.676 249.564 361.986 250.506 362.808 252.539C363.936 255.366 361.57 258.323 359.251 260.263C354.594 264.144 349.306 267.198 343.617 269.291C341.584 270.03 339.45 270.686 337.805 272.109C336.16 273.532 335.181 276.018 336.17 277.967C337.158 279.917 339.699 280.536 341.834 280.139C343.968 279.741 345.862 278.596 347.895 277.829C351.693 276.397 356.59 276.655 358.983 279.935C359.725 281.065 360.194 282.352 360.354 283.694C360.514 285.036 360.361 286.397 359.907 287.669C358.982 290.202 357.559 292.524 355.721 294.498C349.67 301.728 341.806 307.222 332.936 310.418C324.13 313.467 315.971 314.299 307.221 311.093" fill="#B2A4FF"/>
<path d="M362.688 214.932C362.688 214.932 362.605 215.024 362.42 215.19L361.598 215.92C360.877 216.567 359.815 217.51 358.475 218.757C354.676 222.284 351.149 226.092 347.923 230.15C345.862 232.709 343.728 235.611 341.455 238.762C339.182 241.912 336.835 245.313 334.506 248.926C332.024 252.735 329.75 256.677 327.696 260.734C326.625 262.85 325.682 265.059 324.712 267.313L321.847 274.197C318.072 282.868 314.783 291.743 311.998 300.78C309.754 308.175 308.207 315.763 307.378 323.446C306.84 328.631 306.754 333.853 307.119 339.053C307.267 340.901 307.405 342.314 307.535 343.275C307.59 343.737 307.627 344.107 307.664 344.375V344.754C307.624 344.633 307.596 344.51 307.581 344.384C307.535 344.116 307.479 343.756 307.405 343.294C307.239 342.37 307.063 340.91 306.897 339.062C306.451 333.852 306.482 328.613 306.99 323.409C307.767 315.694 309.28 308.07 311.508 300.642C314.27 291.579 317.55 282.682 321.33 273.994L324.268 267.138C325.239 264.892 326.19 262.665 327.271 260.54C329.34 256.471 331.632 252.52 334.137 248.704C336.502 245.008 338.886 241.663 341.131 238.54C343.377 235.417 345.548 232.497 347.599 229.947C350.858 225.9 354.433 222.118 358.29 218.637C359.658 217.408 360.748 216.484 361.487 215.865L362.346 215.172C362.452 215.08 362.566 215 362.688 214.932Z" fill="#263238"/>
<path d="M327.391 260.522C327.261 260.142 327.171 259.748 327.123 259.349C326.976 258.582 326.809 257.501 326.615 256.096C326.218 253.324 325.811 249.527 325.377 245.322C324.943 241.118 324.453 237.311 324.047 234.567C323.834 233.2 323.649 232.1 323.52 231.333C323.419 230.941 323.366 230.537 323.363 230.132C323.522 230.502 323.637 230.89 323.705 231.287C323.908 232.045 324.139 233.135 324.398 234.512C324.924 237.284 325.442 241.054 325.876 245.267C326.31 249.48 326.68 253.176 326.966 256.05C327.105 257.344 327.225 258.443 327.318 259.321C327.389 259.717 327.414 260.12 327.391 260.522Z" fill="#263238"/>
<path d="M362.947 253.888C362.497 253.986 362.04 254.041 361.58 254.054C360.656 254.137 359.344 254.248 357.717 254.433C354.465 254.784 349.993 255.431 345.086 256.355C340.18 257.279 335.772 258.323 332.603 259.127C331.023 259.533 329.748 259.903 328.907 260.152C328.458 260.312 327.993 260.424 327.521 260.485C327.948 260.27 328.393 260.094 328.852 259.958C329.72 259.654 330.977 259.228 332.548 258.776C335.698 257.852 340.106 256.752 345.031 255.81C349.203 255.012 353.412 254.426 357.643 254.054C359.279 253.915 360.6 253.86 361.524 253.842C361.999 253.809 362.476 253.825 362.947 253.888Z" fill="#263238"/>
<path d="M311.961 299.995C311.862 299.862 311.782 299.716 311.721 299.561L311.111 298.277C310.584 297.159 309.873 295.505 309.023 293.481C307.304 289.416 305.114 283.724 302.786 277.404C300.457 271.083 298.313 265.392 296.687 261.28C295.893 259.284 295.237 257.648 294.747 256.429L294.229 255.107C294.158 254.955 294.108 254.793 294.082 254.627C294.18 254.761 294.261 254.907 294.322 255.061L294.932 256.346C295.449 257.464 296.17 259.118 297.02 261.141C298.738 265.207 300.928 270.899 303.257 277.219C305.585 283.539 307.729 289.231 309.355 293.343C310.15 295.338 310.806 296.974 311.286 298.194C311.499 298.72 311.675 299.118 311.813 299.515C311.885 299.667 311.935 299.829 311.961 299.995Z" fill="#263238"/>
<path d="M359.159 284.777C359.011 284.862 358.852 284.927 358.688 284.971L357.32 285.433L352.266 287.069C347.997 288.455 342.102 290.432 335.634 292.613C329.166 294.794 323.243 296.734 318.946 298.028C316.803 298.684 315.056 299.183 313.846 299.515L312.451 299.875C312.288 299.927 312.121 299.961 311.952 299.977C312.1 299.892 312.258 299.827 312.423 299.783L313.79 299.321L318.845 297.686C323.114 296.3 329.009 294.322 335.477 292.142C341.945 289.961 347.858 288.021 352.155 286.727C354.308 286.071 356.045 285.572 357.265 285.239L358.66 284.879C358.822 284.827 358.989 284.793 359.159 284.777Z" fill="#263238"/>
<path d="M339.902 60.6429L335.144 62.3431L333.102 56.1246C329.35 44.6577 317.394 38.5686 306.407 42.4401C295.421 46.3117 289.572 58.8873 293.323 70.3542L295.365 76.5727L290.588 78.2821C288.767 78.9886 287.288 80.37 286.458 82.139C285.629 83.908 285.513 85.9286 286.135 87.7808L299.376 128.243C299.651 129.16 300.107 130.012 300.718 130.749C301.328 131.486 302.081 132.093 302.931 132.533C303.781 132.974 304.71 133.239 305.665 133.313C306.619 133.387 307.579 133.268 308.486 132.964L357.8 115.325C359.646 114.62 361.146 113.226 361.985 111.438C362.824 109.649 362.937 107.604 362.3 105.734L349.05 65.2722C348.768 64.3578 348.305 63.5097 347.688 62.7783C347.071 62.0469 346.313 61.4473 345.459 61.0152C344.605 60.5832 343.673 60.3276 342.719 60.2636C341.764 60.1996 340.806 60.3286 339.902 60.6429ZM302.314 67.1109C301.302 64.1294 301.484 60.8721 302.821 58.0214C304.157 55.1707 306.545 52.948 309.484 51.8187C310.935 51.3222 312.472 51.1231 314.002 51.2333C315.532 51.3434 317.024 51.7607 318.389 52.46C319.754 53.1594 320.964 54.1266 321.947 55.3039C322.93 56.4812 323.666 57.8444 324.111 59.3124L326.144 65.5309L304.347 73.3294L302.314 67.1109ZM330.034 103.018L333.416 113.348C333.478 113.555 333.458 113.778 333.36 113.971C333.262 114.164 333.093 114.311 332.889 114.383L328.149 116.074C327.96 116.126 327.759 116.103 327.587 116.01C327.414 115.917 327.285 115.761 327.225 115.575L323.815 105.291C321.935 105.188 320.132 104.514 318.645 103.358C317.159 102.202 316.062 100.62 315.499 98.8226C314.696 96.4469 314.842 93.8525 315.909 91.5825C316.975 89.3124 318.878 87.5429 321.219 86.6443C322.375 86.2493 323.599 86.0911 324.817 86.1791C326.036 86.2671 327.224 86.5995 328.311 87.1565C329.399 87.7135 330.363 88.4837 331.146 89.4212C331.929 90.3587 332.516 91.4443 332.871 92.6133C333.465 94.4387 333.514 96.3979 333.012 98.2508C332.51 100.104 331.478 101.77 330.043 103.045L330.034 103.018Z" fill="#B2A4FF"/>
<path d="M334.931 62.2318C334.931 62.3612 326.107 65.6783 315.13 69.6238C304.153 73.5693 295.199 76.7386 295.153 76.6462C295.107 76.5538 303.977 73.2089 314.964 69.2542C325.95 65.2995 334.885 62.1117 334.931 62.2318Z" fill="#263238"/>
<path d="M345.409 63.9326C345.45 64.0128 345.484 64.0963 345.511 64.1821C345.585 64.3669 345.668 64.6071 345.779 64.9028C346.019 65.5773 346.352 66.5106 346.768 67.6748L350.316 78.0051C351.794 82.3849 353.559 87.5778 355.518 93.3435C356.442 96.2357 357.532 99.2479 358.549 102.417C359.093 104.05 359.328 105.771 359.242 107.49C359.163 108.384 358.909 109.254 358.493 110.049C358.049 110.842 357.456 111.542 356.747 112.11C355.319 113.152 353.735 113.96 352.053 114.503L347.294 116.213L338.285 119.437L323.03 124.87L312.727 128.492L309.955 129.416L309.216 129.657C309.137 129.692 309.053 129.714 308.967 129.721C308.967 129.721 309.041 129.721 309.198 129.611L309.919 129.324L312.691 128.28L322.938 124.51L338.165 118.966L347.156 115.714L351.914 113.995C353.548 113.474 355.087 112.69 356.47 111.676C357.13 111.149 357.682 110.499 358.096 109.763C358.487 109.027 358.723 108.219 358.789 107.388C358.874 105.732 358.648 104.074 358.124 102.5C357.126 99.3588 356.072 96.3188 355.121 93.4267C353.199 87.6517 351.425 82.4403 350.02 78.0606C348.616 73.6808 347.433 70.1604 346.62 67.6841C346.232 66.4736 345.936 65.5311 345.696 64.8474L345.474 64.1082C345.446 64.0522 345.424 63.9933 345.409 63.9326Z" fill="#263238"/>
<path d="M319.389 51.1906C319.389 51.1906 318.9 50.9504 317.994 50.5808C316.703 50.0848 315.338 49.8099 313.956 49.7676C311.908 49.6974 309.869 50.0824 307.987 50.8949C305.699 51.9067 303.742 53.5432 302.341 55.6166C300.932 57.684 300.175 60.1273 300.17 62.6297C300.189 64.6807 300.5 66.7186 301.094 68.6819C301.575 70.3636 302.074 71.7034 302.406 72.6366C302.602 73.1107 302.763 73.5986 302.887 74.0966C302.624 73.6534 302.404 73.1862 302.231 72.7013C301.852 71.7773 301.307 70.4652 300.771 68.7743C300.113 66.7904 299.755 64.7194 299.708 62.6297C299.683 60.0327 300.458 57.4909 301.926 55.3486C303.375 53.1995 305.412 51.5124 307.793 50.4884C309.734 49.6714 311.836 49.311 313.938 49.435C315.35 49.507 316.737 49.8357 318.031 50.4052C318.377 50.5648 318.711 50.7501 319.029 50.9596C319.16 51.0173 319.282 51.0953 319.389 51.1906Z" fill="#263238"/>
<path d="M319.815 87.3469C319.962 87.2575 320.117 87.1803 320.277 87.1159C320.739 86.9072 321.218 86.7372 321.709 86.6077C322.488 86.3778 323.291 86.2414 324.102 86.2011C325.205 86.1419 326.309 86.3085 327.345 86.6909C329.711 87.5225 331.882 89.9341 332.954 93.1589C333.468 94.8894 333.468 96.7321 332.954 98.4626C332.384 100.341 331.362 102.051 329.979 103.443L330.034 103.194C331.263 106.566 332.603 110.225 333.989 114.041L334.072 114.272L333.841 114.355L331.725 115.058L327.105 116.601L326.874 116.675L326.8 116.444C325.534 112.618 324.148 109.052 323.104 105.55L323.307 105.707C321.501 105.557 319.779 104.879 318.355 103.757C317.066 102.765 316.01 101.504 315.259 100.061C314.582 98.782 314.245 97.3502 314.28 95.9031C314.323 94.4242 314.692 92.9731 315.361 91.6536C316.031 90.3341 316.983 89.179 318.151 88.2709C318.632 87.8806 319.172 87.5688 319.75 87.3469C319.228 87.6566 318.722 87.9927 318.235 88.3541C316.951 89.4396 315.968 90.8363 315.379 92.4104C314.874 93.5974 314.637 94.8816 314.687 96.1709C314.736 97.4601 315.071 98.7224 315.666 99.8671C316.404 101.255 317.435 102.465 318.687 103.415C320.046 104.481 321.688 105.124 323.409 105.263H323.566L323.612 105.402C324.629 108.839 326.024 112.434 327.308 116.277L327.003 116.13L331.623 114.586L333.73 113.875L333.582 114.189C332.205 110.373 330.875 106.705 329.655 103.332V103.194L329.766 103.083C331.109 101.748 332.111 100.11 332.686 98.3055C333.176 96.6501 333.176 94.8882 332.686 93.2328C331.679 90.1281 329.6 87.7719 327.345 86.9403C326.347 86.5555 325.282 86.3764 324.213 86.4137C323.415 86.432 322.621 86.5404 321.847 86.7371C320.471 87.0789 319.824 87.3931 319.815 87.3469Z" fill="#263238"/>
<path d="M291.254 354.142L198.955 353.717C193.625 353.687 188.525 351.544 184.774 347.756C181.023 343.969 178.929 338.848 178.951 333.518L179.93 102.139C179.941 99.4983 180.472 96.8856 181.494 94.4503C182.515 92.015 184.006 89.8048 185.882 87.9461C187.758 86.0874 189.982 84.6166 192.426 83.6179C194.871 82.6191 197.488 82.1119 200.129 82.1253L292.418 82.5503C297.748 82.5772 302.85 84.7185 306.602 88.504C310.355 92.2894 312.452 97.4095 312.432 102.74L311.452 334.109C311.442 336.751 310.91 339.365 309.889 341.801C308.868 344.237 307.378 346.449 305.502 348.309C303.626 350.169 301.403 351.641 298.958 352.642C296.513 353.643 293.895 354.153 291.254 354.142Z" fill="#455A64"/>
<path d="M292.279 90.5058H274.391C273.807 90.5166 273.231 90.6423 272.696 90.8757C272.161 91.1092 271.677 91.4457 271.272 91.8661C270.867 92.2866 270.549 92.7827 270.336 93.3262C270.122 93.8696 270.018 94.4497 270.029 95.0334V98.2767C270.04 98.8599 269.936 99.4396 269.723 99.9825C269.51 100.525 269.191 101.021 268.786 101.441C268.381 101.86 267.897 102.196 267.362 102.428C266.827 102.661 266.251 102.785 265.668 102.795L230.796 102.638C229.617 102.606 228.498 102.108 227.685 101.252C226.873 100.396 226.433 99.2531 226.463 98.0734V94.8301C226.493 93.652 226.054 92.51 225.244 91.6544C224.433 90.7988 223.317 90.2994 222.139 90.2656H215.846L200.184 90.1917C196.459 90.1695 192.877 91.6243 190.222 94.2376C187.567 96.8509 186.056 100.41 186.019 104.135L185.095 329.979C185.087 331.827 185.442 333.659 186.142 335.369C186.841 337.08 187.871 338.636 189.171 339.949C190.472 341.261 192.019 342.305 193.723 343.02C195.427 343.735 197.255 344.108 199.103 344.116L291.208 344.541C293.057 344.55 294.89 344.194 296.601 343.494C298.313 342.794 299.87 341.764 301.184 340.462C302.497 339.161 303.542 337.613 304.257 335.908C304.973 334.203 305.345 332.373 305.354 330.524L306.278 104.68C306.3 100.944 304.838 97.3529 302.213 94.695C299.588 92.037 296.015 90.5302 292.279 90.5058Z" fill="white"/>
<path d="M279.889 314.41L211.402 314.114C210.69 314.114 210.117 313.338 210.127 312.396L210.2 294.479C210.2 293.555 210.783 292.761 211.494 292.761L279.981 293.075C280.375 293.143 280.728 293.361 280.966 293.683C281.203 294.005 281.307 294.406 281.256 294.803L281.191 312.701C281.191 313.652 280.6 314.419 279.889 314.41Z" fill="#B2A4FF"/>
<path d="M233.943 301.649C233.908 301.356 233.768 301.129 233.521 300.967C233.275 300.806 232.973 300.725 232.615 300.725C232.353 300.725 232.124 300.767 231.927 300.852C231.733 300.936 231.581 301.053 231.471 301.201C231.363 301.349 231.309 301.518 231.309 301.706C231.309 301.864 231.347 302 231.422 302.114C231.499 302.225 231.597 302.319 231.717 302.394C231.836 302.467 231.961 302.528 232.092 302.576C232.223 302.622 232.343 302.659 232.453 302.688L233.053 302.85C233.207 302.89 233.379 302.946 233.567 303.017C233.758 303.089 233.94 303.186 234.113 303.309C234.288 303.43 234.433 303.586 234.546 303.777C234.66 303.967 234.717 304.201 234.717 304.479C234.717 304.798 234.633 305.087 234.465 305.345C234.3 305.603 234.057 305.808 233.738 305.96C233.42 306.112 233.034 306.188 232.58 306.188C232.156 306.188 231.79 306.12 231.48 305.983C231.172 305.846 230.929 305.656 230.752 305.411C230.577 305.167 230.478 304.883 230.455 304.559H231.194C231.213 304.783 231.288 304.967 231.419 305.114C231.552 305.258 231.719 305.366 231.922 305.437C232.126 305.506 232.345 305.541 232.58 305.541C232.853 305.541 233.099 305.497 233.316 305.408C233.534 305.318 233.706 305.193 233.833 305.033C233.96 304.871 234.024 304.683 234.024 304.467C234.024 304.271 233.969 304.111 233.859 303.988C233.749 303.864 233.605 303.764 233.426 303.687C233.247 303.61 233.053 303.543 232.846 303.485L232.118 303.277C231.656 303.144 231.29 302.955 231.021 302.708C230.751 302.462 230.616 302.14 230.616 301.741C230.616 301.41 230.706 301.121 230.885 300.875C231.066 300.627 231.308 300.434 231.613 300.297C231.919 300.159 232.26 300.089 232.638 300.089C233.019 300.089 233.358 300.158 233.654 300.294C233.951 300.429 234.185 300.614 234.359 300.849C234.534 301.084 234.626 301.35 234.636 301.649H233.943ZM236.61 300.17V306.084H235.894V300.17H236.61ZM242.735 300.17V306.084H242.042L238.82 301.441H238.762V306.084H238.046V300.17H238.739L241.973 304.825H242.031V300.17H242.735ZM248.211 302.018C248.147 301.824 248.064 301.65 247.96 301.496C247.858 301.34 247.735 301.207 247.593 301.097C247.452 300.987 247.293 300.904 247.114 300.846C246.935 300.788 246.738 300.759 246.525 300.759C246.174 300.759 245.856 300.85 245.569 301.031C245.282 301.212 245.054 301.478 244.884 301.831C244.715 302.183 244.63 302.615 244.63 303.127C244.63 303.639 244.716 304.071 244.887 304.424C245.059 304.776 245.291 305.043 245.583 305.224C245.876 305.404 246.205 305.495 246.571 305.495C246.91 305.495 247.208 305.423 247.466 305.278C247.726 305.132 247.928 304.926 248.072 304.66C248.219 304.393 248.292 304.078 248.292 303.716L248.511 303.762H246.732V303.127H248.985V303.762C248.985 304.249 248.881 304.673 248.673 305.033C248.467 305.393 248.182 305.672 247.818 305.87C247.456 306.067 247.04 306.165 246.571 306.165C246.047 306.165 245.587 306.042 245.19 305.795C244.796 305.549 244.488 305.198 244.266 304.744C244.047 304.29 243.937 303.751 243.937 303.127C243.937 302.659 244 302.239 244.125 301.865C244.252 301.49 244.431 301.17 244.662 300.907C244.893 300.643 245.166 300.441 245.482 300.3C245.798 300.16 246.145 300.089 246.525 300.089C246.836 300.089 247.127 300.137 247.397 300.231C247.668 300.323 247.91 300.455 248.121 300.627C248.335 300.796 248.513 300.999 248.656 301.236C248.798 301.471 248.896 301.732 248.95 302.018H248.211ZM234.59 310.17H235.306V314.086C235.306 314.49 235.21 314.851 235.02 315.169C234.831 315.484 234.565 315.734 234.22 315.917C233.875 316.097 233.471 316.188 233.007 316.188C232.543 316.188 232.139 316.097 231.794 315.917C231.45 315.734 231.182 315.484 230.992 315.169C230.803 314.851 230.709 314.49 230.709 314.086V310.17H231.425V314.028C231.425 314.317 231.488 314.574 231.615 314.799C231.743 315.022 231.923 315.198 232.158 315.327C232.395 315.455 232.678 315.518 233.007 315.518C233.336 315.518 233.619 315.455 233.856 315.327C234.093 315.198 234.274 315.022 234.399 314.799C234.526 314.574 234.59 314.317 234.59 314.028V310.17ZM236.736 316.084V310.17H238.734C239.198 310.17 239.577 310.254 239.872 310.422C240.168 310.587 240.388 310.811 240.53 311.094C240.672 311.377 240.744 311.693 240.744 312.041C240.744 312.39 240.672 312.707 240.53 312.991C240.389 313.276 240.172 313.503 239.877 313.673C239.583 313.84 239.206 313.924 238.746 313.924H237.313V313.289H238.722C239.04 313.289 239.295 313.234 239.488 313.124C239.68 313.015 239.82 312.866 239.906 312.68C239.995 312.491 240.039 312.278 240.039 312.041C240.039 311.805 239.995 311.593 239.906 311.406C239.82 311.219 239.679 311.073 239.485 310.967C239.29 310.859 239.032 310.806 238.711 310.806H237.452V316.084H236.736Z" fill="#E8E8E3"/>
<path d="M225.062 156.896L201.297 156.788L201.278 161.149L225.043 161.257L225.062 156.896Z" fill="#B2A4FF"/>
<path opacity="0.1" d="M225.062 156.896L201.297 156.788L201.278 161.149L225.043 161.257L225.062 156.896Z" fill="black"/>
<path d="M294.728 183.673C294.915 183.654 295.098 183.61 295.273 183.543C295.529 183.443 295.751 183.273 295.915 183.053C296.078 182.832 296.176 182.57 296.197 182.296C296.197 180.827 296.197 178.683 296.197 175.929C296.197 174.553 296.197 173.01 296.197 171.309C296.197 170.894 296.197 170.459 296.197 170.025C296.257 169.604 296.166 169.175 295.939 168.815C295.811 168.642 295.646 168.501 295.455 168.404C295.264 168.306 295.053 168.254 294.839 168.251H293.398H280.046L202.762 167.965C202.565 167.961 202.369 168.006 202.192 168.094C202.015 168.183 201.862 168.313 201.746 168.473C201.523 168.834 201.438 169.264 201.506 169.683C201.506 170.607 201.506 171.531 201.506 172.455C201.506 174.303 201.506 176.151 201.506 177.999C201.506 178.923 201.506 179.847 201.506 180.771C201.467 181.202 201.467 181.634 201.506 182.065C201.554 182.249 201.645 182.42 201.769 182.564C201.894 182.709 202.051 182.822 202.226 182.896C202.409 182.969 202.603 183.004 202.799 182.998H207.503L228.025 183.109L262.767 183.321L286.19 183.506L292.557 183.58H294.211C294.59 183.58 294.774 183.58 294.774 183.58H294.211H292.557H286.19H262.767L228.025 183.469L207.503 183.386H202.799C202.541 183.397 202.282 183.353 202.042 183.257C201.798 183.153 201.582 182.995 201.409 182.795C201.236 182.595 201.111 182.358 201.044 182.102C200.99 181.859 200.972 181.61 200.988 181.363V180.679C200.988 179.755 200.988 178.831 200.988 177.907C200.988 176.059 200.988 174.211 200.988 172.363C200.988 171.439 200.988 170.515 200.988 169.591C200.971 169.345 200.971 169.098 200.988 168.852C201.023 168.58 201.128 168.322 201.293 168.103C201.453 167.88 201.664 167.699 201.908 167.575C202.153 167.451 202.424 167.388 202.698 167.392L279.981 167.817L293.333 167.909H294.774C295.028 167.909 295.278 167.971 295.504 168.088C295.729 168.206 295.922 168.376 296.068 168.584C296.328 168.985 296.434 169.468 296.364 169.942C296.364 170.376 296.364 170.811 296.364 171.226C296.364 172.908 296.364 174.451 296.364 175.846C296.364 178.618 296.299 180.744 296.28 182.222C296.258 182.506 296.155 182.778 295.983 183.006C295.811 183.233 295.577 183.407 295.31 183.506C295.135 183.615 294.934 183.672 294.728 183.673Z" fill="#E0E0E0"/>
<path d="M251.901 172.604H208.436V176.678H251.901V172.604Z" fill="#B2A4FF"/>
<path opacity="0.2" d="M251.901 172.604H208.436V176.678H251.901V172.604Z" fill="white"/>
<path d="M224.9 196.682L201.135 196.574L201.115 200.935L224.88 201.043L224.9 196.682Z" fill="#B2A4FF"/>
<path opacity="0.1" d="M224.9 196.682L201.135 196.574L201.115 200.935L224.88 201.043L224.9 196.682Z" fill="black"/>
<path d="M294.128 223.46C294.314 223.438 294.499 223.404 294.682 223.359C294.94 223.277 295.177 223.14 295.378 222.958C295.579 222.777 295.739 222.554 295.846 222.305C295.992 221.932 296.049 221.531 296.012 221.132C296.012 220.688 296.012 220.208 296.012 219.672C296.012 218.6 296.012 217.381 296.012 215.976V210.109C296.057 209.684 295.963 209.256 295.745 208.889C295.517 208.512 295.158 208.233 294.737 208.104C294.277 208.021 293.808 207.997 293.342 208.03H280.046L203.03 207.743C202.616 207.744 202.216 207.896 201.905 208.169C201.594 208.443 201.393 208.82 201.339 209.231C201.339 210.109 201.339 211.079 201.339 212.003C201.339 213.851 201.339 215.699 201.339 217.547C201.339 218.471 201.339 219.395 201.339 220.319C201.305 220.751 201.324 221.185 201.395 221.612C201.51 221.987 201.748 222.312 202.069 222.536C202.411 222.753 202.812 222.857 203.215 222.832H204.5H207.17L227.618 222.934L262.24 223.146L285.581 223.331L291.928 223.405H285.581H262.24L227.6 223.368L207.151 223.294H203.132C202.632 223.324 202.136 223.191 201.718 222.915C201.298 222.624 200.991 222.196 200.85 221.705C200.767 221.235 200.742 220.757 200.776 220.282C200.776 219.358 200.776 218.434 200.776 217.51C200.776 215.662 200.776 213.814 200.776 211.966C200.776 211.042 200.776 210.118 200.776 209.194C200.843 208.666 201.101 208.18 201.501 207.828C201.9 207.476 202.415 207.281 202.947 207.281L279.963 207.706L293.259 207.808C293.754 207.778 294.251 207.812 294.737 207.91C295.217 208.066 295.622 208.396 295.874 208.834C296.113 209.241 296.216 209.713 296.17 210.183C296.17 210.617 296.17 211.042 296.17 211.467C296.17 213.139 296.17 214.673 296.17 216.087C296.17 217.501 296.17 218.693 296.17 219.783C296.17 220.31 296.17 220.799 296.17 221.252C296.203 221.665 296.137 222.081 295.976 222.463C295.856 222.718 295.682 222.944 295.467 223.125C295.252 223.307 295 223.44 294.728 223.516C294.526 223.533 294.323 223.514 294.128 223.46Z" fill="#E0E0E0"/>
<path d="M224.721 238.196L200.956 238.088L200.936 242.449L224.701 242.557L224.721 238.196Z" fill="#B2A4FF"/>
<path opacity="0.1" d="M224.721 238.196L200.956 238.088L200.936 242.449L224.701 242.557L224.721 238.196Z" fill="black"/>
<path d="M293.943 264.958C294.13 264.936 294.315 264.902 294.497 264.856C294.754 264.774 294.991 264.639 295.191 264.459C295.392 264.279 295.552 264.058 295.661 263.812C295.806 263.439 295.863 263.037 295.828 262.638C295.828 262.186 295.828 261.714 295.828 261.169C295.828 260.107 295.828 258.878 295.828 257.473V251.606C295.872 251.181 295.778 250.753 295.56 250.386C295.326 250.016 294.97 249.741 294.553 249.61C294.093 249.525 293.624 249.497 293.157 249.527H279.861L202.846 249.24C202.431 249.241 202.032 249.393 201.721 249.666C201.41 249.94 201.208 250.317 201.155 250.728C201.155 251.652 201.155 252.576 201.155 253.5C201.155 255.348 201.155 257.196 201.155 259.044C201.155 259.968 201.155 260.892 201.155 261.816C201.12 262.245 201.139 262.676 201.21 263.1C201.321 263.477 201.559 263.804 201.885 264.024C202.224 264.246 202.626 264.35 203.03 264.32H207.05L227.498 264.431L262.12 264.643L285.46 264.828L291.808 264.902H285.46H262.12L227.498 264.8L207.05 264.717H203.03C202.53 264.751 202.033 264.618 201.617 264.338C201.196 264.047 200.889 263.62 200.748 263.128C200.665 262.659 200.641 262.181 200.674 261.705C200.674 260.781 200.674 259.857 200.674 258.933C200.674 257.085 200.674 255.237 200.674 253.389C200.674 252.465 200.674 251.541 200.674 250.571C200.74 250.043 200.995 249.558 201.394 249.206C201.792 248.853 202.305 248.659 202.836 248.658L279.852 249.083L293.148 249.185C293.643 249.155 294.14 249.189 294.627 249.287C295.107 249.443 295.512 249.773 295.763 250.211C296.002 250.617 296.106 251.09 296.059 251.56C296.059 251.994 296.059 252.428 296.059 252.844C296.059 254.516 296.059 256.05 296.059 257.464C296.059 258.878 296.059 260.07 296.059 261.16C296.059 261.687 296.059 262.176 296.059 262.629C296.094 263.042 296.028 263.458 295.865 263.84C295.745 264.094 295.571 264.321 295.356 264.502C295.141 264.684 294.889 264.817 294.617 264.893C294.401 264.967 294.17 264.989 293.943 264.958Z" fill="#E0E0E0"/>
<path d="M250.973 213.543L207.508 213.346L207.49 217.42L250.954 217.618L250.973 213.543Z" fill="#B2A4FF"/>
<path opacity="0.2" d="M250.973 213.543L207.508 213.346L207.49 217.42L250.954 217.618L250.973 213.543Z" fill="white"/>
<path d="M211.438 257.418C211.411 257.789 211.275 258.145 211.048 258.44C210.821 258.735 210.511 258.957 210.159 259.078C209.807 259.2 209.426 259.215 209.065 259.122C208.705 259.029 208.379 258.832 208.129 258.556C207.879 258.279 207.715 257.936 207.659 257.567C207.602 257.199 207.655 256.822 207.811 256.483C207.966 256.145 208.218 255.859 208.534 255.662C208.851 255.466 209.218 255.366 209.59 255.376C210.105 255.404 210.588 255.635 210.934 256.017C211.28 256.399 211.461 256.903 211.438 257.418Z" fill="#B2A4FF"/>
<path d="M217.325 257.445C217.343 257.706 217.307 257.967 217.22 258.213C217.133 258.459 216.996 258.685 216.818 258.876C216.64 259.067 216.424 259.219 216.185 259.323C215.945 259.427 215.687 259.481 215.426 259.481C215.165 259.481 214.906 259.427 214.667 259.323C214.427 259.219 214.212 259.067 214.034 258.876C213.856 258.685 213.719 258.459 213.632 258.213C213.545 257.967 213.509 257.706 213.527 257.445C213.509 257.185 213.545 256.923 213.632 256.677C213.719 256.431 213.856 256.205 214.034 256.014C214.212 255.823 214.427 255.671 214.667 255.567C214.906 255.463 215.165 255.409 215.426 255.409C215.687 255.409 215.945 255.463 216.185 255.567C216.424 255.671 216.64 255.823 216.818 256.014C216.996 256.205 217.133 256.431 217.22 256.677C217.307 256.923 217.343 257.185 217.325 257.445Z" fill="#B2A4FF"/>
<path d="M223.22 257.472C223.192 257.844 223.057 258.2 222.829 258.495C222.602 258.79 222.293 259.012 221.94 259.133C221.588 259.254 221.208 259.269 220.847 259.176C220.486 259.083 220.16 258.887 219.91 258.61C219.66 258.334 219.497 257.99 219.44 257.622C219.383 257.254 219.436 256.877 219.592 256.538C219.748 256.2 219.999 255.914 220.316 255.717C220.632 255.52 220.999 255.42 221.372 255.43C221.886 255.461 222.367 255.693 222.712 256.074C223.058 256.456 223.24 256.958 223.22 257.472Z" fill="#B2A4FF"/>
<path d="M229.105 257.501C229.078 257.872 228.942 258.228 228.715 258.523C228.488 258.818 228.178 259.04 227.826 259.161C227.474 259.283 227.093 259.298 226.732 259.205C226.372 259.112 226.046 258.915 225.796 258.639C225.546 258.362 225.382 258.019 225.326 257.65C225.269 257.282 225.322 256.905 225.478 256.566C225.633 256.228 225.885 255.942 226.201 255.745C226.518 255.549 226.885 255.449 227.257 255.459C227.771 255.49 228.253 255.721 228.598 256.103C228.944 256.484 229.126 256.986 229.105 257.501Z" fill="#B2A4FF"/>
<path d="M234.991 257.519C234.966 257.891 234.832 258.248 234.605 258.544C234.379 258.841 234.07 259.064 233.718 259.187C233.365 259.309 232.985 259.325 232.623 259.233C232.262 259.141 231.935 258.945 231.684 258.669C231.433 258.393 231.269 258.049 231.211 257.681C231.154 257.312 231.207 256.935 231.362 256.596C231.518 256.256 231.769 255.97 232.086 255.773C232.403 255.576 232.77 255.476 233.143 255.486C233.656 255.517 234.136 255.747 234.481 256.127C234.826 256.506 235.009 257.006 234.991 257.519Z" fill="#B2A4FF"/>
<path d="M240.886 257.546C240.861 257.917 240.728 258.272 240.504 258.567C240.28 258.863 239.974 259.087 239.624 259.211C239.274 259.335 238.896 259.354 238.535 259.266C238.175 259.178 237.848 258.986 237.595 258.715C237.342 258.443 237.174 258.104 237.111 257.738C237.049 257.372 237.094 256.996 237.243 256.656C237.391 256.315 237.636 256.026 237.947 255.823C238.258 255.62 238.621 255.513 238.992 255.514C239.513 255.533 240.004 255.758 240.359 256.139C240.714 256.52 240.904 257.026 240.886 257.546Z" fill="#B2A4FF"/>
<path d="M246.772 257.574C246.791 257.835 246.755 258.096 246.668 258.342C246.581 258.588 246.444 258.814 246.266 259.005C246.088 259.196 245.872 259.348 245.633 259.452C245.393 259.556 245.135 259.61 244.874 259.61C244.613 259.61 244.354 259.556 244.115 259.452C243.875 259.348 243.66 259.196 243.482 259.005C243.304 258.814 243.167 258.588 243.079 258.342C242.992 258.096 242.957 257.835 242.975 257.574C242.957 257.314 242.992 257.052 243.079 256.806C243.167 256.56 243.304 256.334 243.482 256.143C243.66 255.952 243.875 255.8 244.115 255.696C244.354 255.592 244.613 255.538 244.874 255.538C245.135 255.538 245.393 255.592 245.633 255.696C245.872 255.8 246.088 255.952 246.266 256.143C246.444 256.334 246.581 256.56 246.668 256.806C246.755 257.052 246.791 257.314 246.772 257.574Z" fill="#B2A4FF"/>
<path d="M252.658 257.602C252.633 257.972 252.5 258.327 252.276 258.623C252.052 258.919 251.746 259.142 251.396 259.267C251.046 259.391 250.668 259.41 250.307 259.322C249.947 259.234 249.62 259.042 249.367 258.77C249.114 258.499 248.946 258.159 248.883 257.793C248.821 257.428 248.866 257.051 249.015 256.711C249.163 256.371 249.408 256.082 249.719 255.879C250.03 255.676 250.393 255.568 250.764 255.569C251.285 255.589 251.776 255.813 252.131 256.194C252.486 256.575 252.676 257.082 252.658 257.602Z" fill="#B2A4FF"/>
<path d="M258.544 257.63C258.519 258.002 258.384 258.359 258.158 258.655C257.931 258.952 257.623 259.175 257.27 259.298C256.918 259.42 256.537 259.437 256.176 259.345C255.814 259.253 255.488 259.057 255.237 258.78C254.986 258.504 254.821 258.161 254.764 257.792C254.707 257.423 254.759 257.046 254.915 256.707C255.07 256.368 255.322 256.082 255.639 255.884C255.955 255.687 256.323 255.587 256.696 255.597C257.208 255.628 257.688 255.858 258.033 256.238C258.379 256.618 258.562 257.117 258.544 257.63Z" fill="#B2A4FF"/>
<g opacity="0.2">
<path d="M211.438 257.418C211.411 257.789 211.275 258.145 211.048 258.44C210.821 258.735 210.511 258.957 210.159 259.078C209.807 259.2 209.426 259.215 209.065 259.122C208.705 259.029 208.379 258.832 208.129 258.556C207.879 258.279 207.715 257.936 207.659 257.567C207.602 257.199 207.655 256.822 207.811 256.483C207.966 256.145 208.218 255.859 208.534 255.662C208.851 255.466 209.218 255.366 209.59 255.376C210.105 255.404 210.588 255.635 210.934 256.017C211.28 256.399 211.461 256.903 211.438 257.418Z" fill="white"/>
<path d="M217.324 257.445C217.342 257.706 217.307 257.967 217.22 258.213C217.132 258.459 216.996 258.685 216.817 258.876C216.639 259.067 216.424 259.219 216.184 259.323C215.945 259.427 215.687 259.481 215.425 259.481C215.164 259.481 214.906 259.427 214.666 259.323C214.427 259.219 214.212 259.067 214.033 258.876C213.855 258.685 213.718 258.459 213.631 258.213C213.544 257.967 213.508 257.706 213.527 257.445C213.508 257.185 213.544 256.923 213.631 256.677C213.718 256.431 213.855 256.205 214.033 256.014C214.212 255.823 214.427 255.671 214.666 255.567C214.906 255.463 215.164 255.409 215.425 255.409C215.687 255.409 215.945 255.463 216.184 255.567C216.424 255.671 216.639 255.823 216.817 256.014C216.996 256.205 217.132 256.431 217.22 256.677C217.307 256.923 217.342 257.185 217.324 257.445Z" fill="white"/>
<path d="M223.219 257.473C223.192 257.845 223.056 258.201 222.829 258.496C222.601 258.791 222.292 259.013 221.94 259.134C221.587 259.255 221.207 259.27 220.846 259.177C220.485 259.084 220.16 258.888 219.91 258.611C219.66 258.335 219.496 257.991 219.44 257.623C219.383 257.255 219.436 256.878 219.591 256.539C219.747 256.201 219.999 255.915 220.315 255.718C220.631 255.521 220.999 255.421 221.371 255.431C221.885 255.462 222.366 255.694 222.712 256.075C223.057 256.457 223.24 256.959 223.219 257.473Z" fill="white"/>
<path d="M229.105 257.501C229.078 257.872 228.942 258.228 228.715 258.523C228.488 258.818 228.178 259.04 227.826 259.161C227.474 259.283 227.093 259.298 226.732 259.205C226.372 259.112 226.046 258.915 225.796 258.639C225.546 258.362 225.382 258.019 225.326 257.65C225.269 257.282 225.322 256.905 225.478 256.566C225.633 256.228 225.885 255.942 226.201 255.745C226.518 255.549 226.885 255.449 227.257 255.459C227.771 255.49 228.253 255.721 228.598 256.103C228.944 256.484 229.126 256.986 229.105 257.501Z" fill="white"/>
<path d="M234.991 257.52C234.966 257.892 234.832 258.249 234.605 258.545C234.379 258.842 234.07 259.065 233.718 259.188C233.365 259.31 232.985 259.326 232.623 259.234C232.262 259.142 231.935 258.946 231.684 258.67C231.433 258.394 231.269 258.05 231.211 257.682C231.154 257.313 231.207 256.936 231.362 256.596C231.518 256.257 231.769 255.971 232.086 255.774C232.403 255.577 232.77 255.477 233.143 255.487C233.656 255.518 234.136 255.748 234.481 256.128C234.826 256.507 235.009 257.007 234.991 257.52Z" fill="white"/>
<path d="M240.886 257.547C240.861 257.918 240.728 258.273 240.504 258.568C240.28 258.864 239.974 259.088 239.624 259.212C239.274 259.336 238.896 259.355 238.535 259.267C238.175 259.179 237.848 258.987 237.595 258.716C237.342 258.444 237.174 258.105 237.111 257.739C237.049 257.373 237.094 256.997 237.243 256.657C237.391 256.316 237.636 256.027 237.947 255.824C238.258 255.621 238.621 255.514 238.992 255.515C239.513 255.534 240.004 255.759 240.359 256.14C240.714 256.521 240.904 257.027 240.886 257.547Z" fill="white"/>
<path d="M246.772 257.575C246.791 257.836 246.755 258.097 246.668 258.343C246.581 258.589 246.444 258.815 246.266 259.006C246.088 259.197 245.872 259.349 245.633 259.453C245.393 259.557 245.135 259.611 244.874 259.611C244.613 259.611 244.354 259.557 244.115 259.453C243.875 259.349 243.66 259.197 243.482 259.006C243.304 258.815 243.167 258.589 243.079 258.343C242.992 258.097 242.957 257.836 242.975 257.575C242.957 257.315 242.992 257.053 243.079 256.807C243.167 256.561 243.304 256.335 243.482 256.144C243.66 255.953 243.875 255.801 244.115 255.697C244.354 255.593 244.613 255.539 244.874 255.539C245.135 255.539 245.393 255.593 245.633 255.697C245.872 255.801 246.088 255.953 246.266 256.144C246.444 256.335 246.581 256.561 246.668 256.807C246.755 257.053 246.791 257.315 246.772 257.575Z" fill="white"/>
<path d="M252.658 257.602C252.633 257.972 252.5 258.327 252.275 258.623C252.051 258.919 251.745 259.142 251.396 259.267C251.046 259.391 250.667 259.41 250.307 259.322C249.946 259.234 249.619 259.042 249.366 258.77C249.113 258.499 248.945 258.159 248.883 257.793C248.82 257.428 248.866 257.051 249.014 256.711C249.163 256.371 249.408 256.082 249.718 255.879C250.029 255.676 250.393 255.568 250.764 255.569C251.284 255.589 251.776 255.813 252.131 256.194C252.486 256.575 252.675 257.082 252.658 257.602Z" fill="white"/>
<path d="M258.544 257.63C258.519 258.002 258.384 258.359 258.158 258.655C257.931 258.952 257.623 259.175 257.27 259.298C256.918 259.42 256.537 259.437 256.176 259.345C255.814 259.253 255.488 259.057 255.237 258.78C254.986 258.504 254.821 258.161 254.764 257.792C254.707 257.423 254.759 257.046 254.915 256.707C255.07 256.368 255.322 256.082 255.639 255.884C255.955 255.687 256.323 255.587 256.696 255.597C257.208 255.628 257.688 255.858 258.033 256.238C258.379 256.618 258.562 257.117 258.544 257.63Z" fill="white"/>
</g>
<path d="M250.182 124.242C250.824 123.959 251.369 123.494 251.748 122.904C252.128 122.314 252.325 121.626 252.317 120.924C252.341 120.468 252.271 120.012 252.113 119.584C251.955 119.156 251.712 118.764 251.398 118.433C251.083 118.102 250.705 117.838 250.286 117.658C249.866 117.478 249.414 117.385 248.958 117.385C248.501 117.385 248.05 117.478 247.63 117.658C247.211 117.838 246.832 118.102 246.518 118.433C246.204 118.764 245.96 119.156 245.802 119.584C245.644 120.012 245.575 120.468 245.599 120.924C245.585 121.633 245.781 122.329 246.163 122.926C246.544 123.523 247.094 123.994 247.743 124.278C242.568 125.055 242.799 130.673 242.799 130.673L255.033 130.728C255.033 130.728 255.32 125.008 250.182 124.242Z" fill="#B2A4FF"/>
<path opacity="0.1" d="M250.182 124.242C250.824 123.959 251.369 123.494 251.748 122.904C252.128 122.314 252.325 121.626 252.317 120.924C252.341 120.468 252.271 120.012 252.113 119.584C251.955 119.156 251.712 118.764 251.398 118.433C251.083 118.102 250.705 117.838 250.286 117.658C249.866 117.478 249.414 117.385 248.958 117.385C248.501 117.385 248.05 117.478 247.63 117.658C247.211 117.838 246.832 118.102 246.518 118.433C246.204 118.764 245.96 119.156 245.802 119.584C245.644 120.012 245.575 120.468 245.599 120.924C245.585 121.633 245.781 122.329 246.163 122.926C246.544 123.523 247.094 123.994 247.743 124.278C242.568 125.055 242.799 130.673 242.799 130.673L255.033 130.728C255.033 130.728 255.32 125.008 250.182 124.242Z" fill="black"/>
<path d="M270.062 134.351L226.458 134.153L226.435 139.365L270.038 139.562L270.062 134.351Z" fill="#B2A4FF"/>
<path opacity="0.2" d="M270.062 134.351L226.458 134.153L226.435 139.365L270.038 139.562L270.062 134.351Z" fill="white"/>
<path d="M109.762 161.358H109.328L108.071 161.451C107.391 161.492 106.715 161.581 106.048 161.719C105.616 161.78 105.187 161.863 104.763 161.968L103.331 162.366C100.893 163.114 98.5935 164.253 96.5213 165.738C93.7833 167.726 91.4971 170.27 89.813 173.204C88.8232 174.896 88.0355 176.697 87.4661 178.573C86.8678 180.611 86.5233 182.715 86.4404 184.837C86.3854 185.952 86.4039 187.07 86.4959 188.182C86.4959 188.746 86.653 189.309 86.7269 189.882C86.789 190.46 86.8972 191.031 87.0503 191.592C87.8811 195.3 89.567 198.762 91.9734 201.702C94.3798 204.643 97.4402 206.981 100.91 208.529C103.422 209.612 106.114 210.217 108.847 210.312C111.671 210.467 114.497 210.062 117.163 209.12L117.977 208.815H118.087L118.18 208.871L129.831 214.784L129.49 215.08C128.242 211.218 127.041 207.475 125.877 203.881V203.742L125.978 203.641C128.805 200.794 130.903 197.307 132.095 193.477C133.175 189.975 133.49 186.282 133.019 182.647C132.6 179.418 131.562 176.299 129.961 173.463C128.581 171.027 126.8 168.84 124.694 166.995C122.956 165.534 121.033 164.31 118.974 163.354C117.417 162.682 115.794 162.172 114.133 161.83L112.285 161.525L110.945 161.423L110.132 161.368H109.855C109.947 161.357 110.04 161.357 110.132 161.368H110.954L112.294 161.423L114.142 161.691C115.824 162.008 117.469 162.5 119.048 163.16C121.142 164.105 123.1 165.326 124.87 166.792C127.014 168.629 128.833 170.815 130.247 173.26C131.894 176.126 132.964 179.287 133.398 182.564C133.908 186.255 133.615 190.012 132.539 193.578C131.339 197.489 129.208 201.049 126.33 203.955L126.385 203.715C127.549 207.309 128.76 211.051 130.016 214.904L130.192 215.468L129.665 215.2L118.014 209.296H118.217L117.385 209.601C114.668 210.557 111.789 210.971 108.912 210.82C106.119 210.714 103.371 210.087 100.809 208.972C95.9204 206.879 91.8534 203.24 89.2309 198.614C88.0241 196.478 87.1427 194.173 86.616 191.777C86.4717 191.202 86.3637 190.619 86.2926 190.03C86.2187 189.448 86.0986 188.875 86.0708 188.302C85.8208 185.015 86.1682 181.709 87.0965 178.545C87.68 176.644 88.4897 174.82 89.5081 173.112C91.2324 170.151 93.5662 167.59 96.3549 165.6C98.4613 164.11 100.8 162.98 103.276 162.255L104.726 161.885C105.153 161.786 105.585 161.709 106.02 161.654C106.694 161.529 107.377 161.455 108.062 161.432L109.328 161.386C109.472 161.367 109.617 161.358 109.762 161.358Z" fill="#B2A4FF"/>
<path d="M115.029 182.906H113.319L109.623 177.713V174.304C109.623 174.304 106.981 174.137 107.295 178.6C107.609 183.063 107.295 181.927 107.295 181.927C107.295 181.927 101.686 181.927 101.224 182.435C100.762 182.943 100.735 188.358 100.67 191.379C100.634 192.107 100.843 192.827 101.264 193.423C101.684 194.019 102.291 194.457 102.989 194.668C103.185 194.723 103.387 194.751 103.59 194.752C104.994 194.752 112.137 193.615 112.137 193.615H115.084L115.029 182.906Z" fill="#B2A4FF"/>
<path d="M119.917 181.991L118.864 193.671H115.944V182.231L119.917 181.991Z" fill="#B2A4FF"/>
<path d="M154.742 419.765V411.864L140.577 411.763L140.457 423.71L141.335 423.775C145.243 424.024 161.219 424.394 163.843 423.581C166.763 422.675 154.742 419.765 154.742 419.765Z" fill="#B2A4FF"/>
<path d="M164.176 422.841C164.176 422.971 158.872 423.082 152.339 423.082C145.807 423.082 140.503 422.971 140.503 422.841C140.503 422.712 145.807 422.601 152.339 422.601C158.872 422.601 164.176 422.712 164.176 422.841Z" fill="#263238"/>
<path d="M154.992 421.382C154.871 421.317 154.992 420.901 155.278 420.458C155.564 420.014 155.953 419.829 156.045 419.922C156.137 420.014 155.943 420.365 155.666 420.744C155.389 421.123 155.112 421.446 154.992 421.382Z" fill="#263238"/>
<path d="M155.897 421.899C155.768 421.899 155.832 421.381 156.11 420.892C156.387 420.402 156.756 420.106 156.858 420.18C156.96 420.254 156.793 420.67 156.535 421.104C156.276 421.538 156.017 421.945 155.897 421.899Z" fill="#263238"/>
<path d="M144.772 422.804C144.717 422.804 144.504 422.638 144.199 422.287C143.827 421.836 143.412 421.421 142.961 421.049C142.517 420.694 141.988 420.462 141.427 420.374C140.993 420.319 140.716 420.374 140.688 420.319C140.66 420.263 140.928 420.069 141.436 420.032C142.107 420.018 142.761 420.241 143.284 420.661C143.775 421.06 144.188 421.545 144.504 422.093C144.717 422.499 144.828 422.767 144.772 422.804Z" fill="#263238"/>
<path d="M155.038 419.894C155.102 420.005 154.862 420.282 154.456 420.43C154.049 420.578 153.689 420.522 153.67 420.43C153.652 420.338 153.938 420.144 154.289 420.014C154.64 419.885 154.964 419.783 155.038 419.894Z" fill="#263238"/>
<path d="M154.816 419.127C154.816 419.266 154.446 419.377 153.966 419.386C153.485 419.395 153.107 419.284 153.116 419.155C153.125 419.025 153.504 418.905 153.966 418.896C154.428 418.887 154.798 418.998 154.816 419.127Z" fill="#263238"/>
<path d="M189.623 419.765V411.864L175.458 411.763L175.338 423.59L176.216 423.655C180.124 423.904 196.109 424.394 198.724 423.581C201.644 422.675 189.623 419.765 189.623 419.765Z" fill="#B2A4FF"/>
<path d="M199.057 422.86C199.057 422.989 193.763 423.1 187.221 423.1C180.679 423.1 175.394 422.989 175.394 422.86C175.394 422.731 180.688 422.62 187.221 422.62C193.753 422.62 199.057 422.731 199.057 422.86Z" fill="#263238"/>
<path d="M189.872 421.382C189.762 421.317 189.872 420.901 190.159 420.458C190.445 420.014 190.833 419.829 190.926 419.922C191.018 420.014 190.824 420.365 190.547 420.744C190.27 421.123 189.993 421.446 189.872 421.382Z" fill="#263238"/>
<path d="M190.778 421.899C190.658 421.899 190.713 421.381 191 420.892C191.286 420.402 191.646 420.106 191.748 420.18C191.85 420.254 191.674 420.67 191.415 421.104C191.157 421.538 190.907 421.945 190.778 421.899Z" fill="#263238"/>
<path d="M179.653 422.804C179.597 422.804 179.394 422.638 179.08 422.287C178.708 421.836 178.293 421.421 177.842 421.049C177.398 420.694 176.869 420.462 176.308 420.374C175.883 420.319 175.597 420.374 175.569 420.319C175.541 420.263 175.809 420.069 176.317 420.032C176.988 420.018 177.642 420.241 178.165 420.661C178.658 421.058 179.072 421.543 179.385 422.093C179.597 422.499 179.708 422.767 179.653 422.804Z" fill="#263238"/>
<path d="M189.919 419.894C189.983 420.005 189.743 420.282 189.337 420.43C188.93 420.578 188.57 420.522 188.551 420.43C188.533 420.338 188.819 420.144 189.17 420.014C189.521 419.885 189.845 419.783 189.919 419.894Z" fill="#263238"/>
<path d="M189.716 419.127C189.716 419.266 189.346 419.377 188.865 419.386C188.385 419.395 188.015 419.284 188.025 419.155C188.034 419.025 188.403 418.905 188.865 418.896C189.327 418.887 189.716 418.998 189.716 419.127Z" fill="#263238"/>
<path d="M241.811 185.161C241.441 184.782 240.526 184.967 240.526 184.967C240.618 184.435 240.618 183.891 240.526 183.359C240.36 182.841 239.196 182.943 239.196 182.943C239.142 182.507 239.142 182.067 239.196 181.631C239.205 181.534 239.184 181.437 239.136 181.353C239.088 181.269 239.015 181.201 238.928 181.16C238.377 180.935 237.785 180.828 237.191 180.846C236.479 180.337 239.362 176.299 240.434 175.006C241.506 173.712 241.312 172.705 240.36 172.705C239.704 172.705 236.34 176.586 235.306 177.889C234.271 179.192 231.526 182.814 231.434 179.922C231.342 177.029 230.177 174.849 229.447 174.479C228.717 174.11 227.941 174.978 228.339 175.782C228.688 176.695 228.905 177.653 228.985 178.628C229.086 179.404 229.051 180.192 228.884 180.956C228.577 182.379 228.16 183.775 227.636 185.133H227.562C227.562 185.133 207.401 204.472 205.941 205.849C204.638 207.087 178.433 204.38 173.176 203.825C171.389 203.564 169.585 203.44 167.78 203.456C165.497 203.557 165.091 203.881 162.818 203.909C157.077 203.972 151.35 204.476 145.687 205.415C143.122 205.851 140.727 206.983 138.762 208.687C136.797 210.391 135.338 212.603 134.543 215.08C129.249 231.619 117.255 270.769 115.139 292.76C113.54 295.66 112.097 298.643 110.815 301.695C109.327 305.743 109.688 305.881 110.187 305.974C111.536 306.223 113.07 298.96 113.642 300.716C114.215 302.472 110.732 309.374 112.146 309.577C113.994 309.836 115.463 302.185 115.638 301.575C115.814 300.966 116.729 301.16 116.562 301.732C116.294 302.546 113.698 311.166 115.509 311.444C116.507 311.592 116.618 309.771 116.618 309.771C116.618 309.771 118.466 301.52 119.307 301.686C120.147 301.853 119.251 306.722 118.826 308.348C118.401 309.975 118.992 310.797 119.861 310.4C120.452 310.122 121.866 305.179 122.254 303.571C122.642 301.963 123.612 297.51 124.915 300.088C126.218 302.666 128.195 304.163 129.009 304.2C129.192 304.178 129.365 304.103 129.504 303.983C129.644 303.863 129.745 303.703 129.794 303.526C129.843 303.348 129.837 303.159 129.778 302.985C129.718 302.81 129.608 302.657 129.461 302.546C128.762 301.863 128.162 301.085 127.678 300.236C127.247 299.574 126.934 298.842 126.754 298.073C126.382 296.541 126.165 294.974 126.107 293.398L125.959 292.474C128.029 282.227 133.989 252.151 142.591 232.941L146.121 240.203L147.655 245.581L138.249 268.801L178.369 268.274L172.381 245.23L179.653 221.206C187.516 221.381 207.706 221.677 211.069 220.152C215.301 218.304 237.191 190.658 237.191 190.658C238.617 189.55 239.984 188.365 241.284 187.11C241.284 187.11 242.614 185.992 241.811 185.161Z" fill="#FFBE9D"/>
<path d="M136.484 251.643C137.648 247.67 143.626 228.025 143.626 228.025C143.626 228.025 146.565 244.038 145.788 245.969C145.074 247.623 144.231 249.217 143.266 250.737C136.484 261.058 137.371 266.224 137.371 266.224L178.35 264.976C178.443 259.247 175.051 245.923 174.349 243.798C173.647 241.673 175.985 234.715 175.985 234.715C175.985 234.715 180.605 230.012 180.438 227.591C180.351 225.416 180.082 223.253 179.634 221.123L204.582 222.047L203.797 205.138L167.964 201.553C166.717 205.073 155.435 203.345 155.435 203.345C143.257 203.752 142.499 205.988 137.435 209.924C132.372 213.86 123.991 247.642 123.991 247.642L136.484 251.643Z" fill="#B2A4FF"/>
<path d="M160.711 247.642C160.001 247.769 159.278 247.806 158.558 247.753C157.218 247.753 155.379 247.66 153.356 247.457C151.332 247.254 149.503 246.967 148.2 246.709C147.482 246.616 146.777 246.436 146.103 246.173C146.825 246.173 147.546 246.241 148.255 246.376C149.568 246.542 151.388 246.773 153.402 246.977C155.416 247.18 157.246 247.319 158.567 247.411C159.288 247.42 160.005 247.497 160.711 247.642Z" fill="#263238"/>
<path d="M163.52 244.158C162.809 244.506 162.058 244.764 161.284 244.925C157.597 245.894 153.794 246.345 149.983 246.265C149.195 246.291 148.406 246.216 147.636 246.043C148.414 245.945 149.199 245.905 149.983 245.923C151.434 245.877 153.43 245.775 155.629 245.516C157.828 245.258 159.787 244.888 161.173 244.592C161.943 244.387 162.727 244.242 163.52 244.158Z" fill="#263238"/>
<path d="M177.306 228.616C177.287 229.321 177.191 230.021 177.02 230.704C176.779 231.989 176.41 233.744 175.938 235.666C175.467 237.588 175.014 239.362 174.608 240.564C174.444 241.251 174.203 241.918 173.887 242.55C173.939 241.848 174.069 241.154 174.275 240.48C174.626 239.039 175.024 237.376 175.467 235.555C175.911 233.735 176.336 232.072 176.687 230.631C176.812 229.937 177.02 229.26 177.306 228.616Z" fill="#263238"/>
<path d="M136.918 249.287C134.781 248.956 132.671 248.465 130.607 247.817C128.499 247.324 126.429 246.676 124.417 245.877C126.553 246.212 128.662 246.703 130.727 247.346C132.837 247.837 134.906 248.486 136.918 249.287Z" fill="#263238"/>
<path d="M180.078 220.92C179.729 220.98 179.373 220.98 179.024 220.92C178.059 220.821 177.112 220.594 176.206 220.245C174.695 219.677 173.319 218.799 172.167 217.668C171.014 216.536 170.112 215.176 169.517 213.675C168.859 212.024 168.578 210.247 168.694 208.473C168.735 207.01 169.173 205.586 169.96 204.352C170.514 203.521 171.341 202.91 172.298 202.624C172.553 202.554 172.818 202.52 173.083 202.523C173.268 202.523 173.36 202.523 173.36 202.523C173.36 202.523 172.972 202.523 172.353 202.772C171.475 203.097 170.731 203.705 170.237 204.5C168.981 206.477 168.629 210.09 169.969 213.463C170.593 215.053 171.569 216.481 172.824 217.639C173.853 218.587 175.038 219.35 176.326 219.894C177.536 220.372 178.794 220.716 180.078 220.92Z" fill="#263238"/>
<path d="M201.617 221.714C201.386 218.88 201.312 216.036 201.395 213.195C201.323 210.355 201.409 207.514 201.654 204.685C201.885 207.515 201.959 210.356 201.875 213.195C201.953 216.037 201.867 218.881 201.617 221.714Z" fill="#263238"/>
<path d="M167.724 202.587C167.826 200.527 168.038 198.198 168.038 198.198C168.038 198.198 173.139 197.635 173.444 192.368C173.749 187.101 173.444 174.951 173.444 174.951L164.204 170.22L153.947 178.286L155.527 204.62L164.934 205.221C165.653 205.241 166.35 204.975 166.873 204.481C167.396 203.987 167.702 203.306 167.724 202.587Z" fill="#FFBE9D"/>
<path d="M168.639 188.201C168.639 188.201 168.639 188.302 168.556 188.423C168.487 188.51 168.398 188.579 168.297 188.624C168.195 188.669 168.084 188.689 167.974 188.681C167.382 188.681 166.809 187.998 166.606 187.203C166.51 186.818 166.51 186.415 166.606 186.029C166.625 185.861 166.686 185.701 166.783 185.562C166.879 185.423 167.009 185.311 167.161 185.235C167.285 185.183 167.424 185.183 167.549 185.235C167.641 185.281 167.715 185.355 167.761 185.447C167.826 185.604 167.761 185.706 167.761 185.697C167.761 185.688 167.761 185.604 167.669 185.512C167.62 185.446 167.549 185.4 167.469 185.383C167.389 185.366 167.306 185.379 167.234 185.42C167.121 185.488 167.027 185.584 166.961 185.699C166.894 185.814 166.858 185.943 166.856 186.076C166.778 186.419 166.778 186.776 166.856 187.12C167.04 187.84 167.539 188.423 167.983 188.478C168.07 188.49 168.158 188.484 168.242 188.46C168.326 188.436 168.405 188.395 168.473 188.339C168.584 188.266 168.62 188.192 168.639 188.201Z" fill="#EB996E"/>
<path d="M176.613 172.105C175.902 169.684 173.324 168.483 170.977 167.817C167.401 166.801 163.539 166.357 160.046 167.642C156.553 168.926 152.358 171.181 152.358 175.034C150.298 174.868 149.115 176.669 148.302 178.905C147.782 180.268 147.471 181.701 147.378 183.156C147.119 188.201 145.705 195.168 142.434 198.864C140.586 200.924 138.027 202.347 136.974 204.916C136.05 207.143 136.53 209.785 135.671 212.04C134.904 214.027 133.213 215.44 131.975 217.168C130.713 219.128 129.971 221.377 129.817 223.703C129.664 226.029 130.104 228.356 131.097 230.465C132.097 232.52 133.505 234.349 135.235 235.843C136.965 237.336 138.98 238.461 141.159 239.15C145.475 240.463 150.078 240.508 154.419 239.28C157.677 238.501 160.716 236.994 163.308 234.872C165.96 232.706 167.781 229.69 168.464 226.334C169.12 222.564 168.066 218.73 167.281 214.978C164.823 203.123 165.525 202.504 168.63 191.5C168.704 191.305 168.741 191.102 168.796 190.908C168.852 190.714 168.879 190.622 168.916 190.474C169.005 190.039 169.051 189.596 169.055 189.153C168.601 189.321 168.109 189.357 167.636 189.255C167.163 189.154 166.729 188.919 166.385 188.58C166.039 188.217 165.799 187.768 165.688 187.28C165.577 186.792 165.601 186.283 165.756 185.808C165.974 185.287 166.299 184.819 166.71 184.432C167.12 184.045 167.608 183.749 168.14 183.562C169.166 183.137 170.265 182.916 171.273 182.444C173.407 181.428 174.885 179.321 175.893 177.113C176.721 175.582 176.976 173.807 176.613 172.105Z" fill="#263238"/>
<path d="M169.008 188.45C169.204 188.739 169.365 189.049 169.489 189.374C169.766 189.956 170.136 190.779 170.542 191.73L170.616 191.906H170.422L169.498 191.989C168.861 191.989 168.325 192.109 167.696 192.1C167.642 192.088 167.591 192.062 167.549 192.025C167.507 191.987 167.475 191.94 167.456 191.887C167.429 191.803 167.429 191.713 167.456 191.629C167.478 191.504 167.505 191.381 167.539 191.259L167.706 190.603C167.789 190.165 167.919 189.738 168.094 189.328C168.077 189.774 168.011 190.217 167.9 190.649L167.77 191.305C167.724 191.527 167.641 191.869 167.77 191.841C168.232 191.841 168.888 191.74 169.498 191.703L170.422 191.62L170.302 191.823C169.905 190.899 169.572 190.03 169.378 189.43C169.208 189.123 169.083 188.793 169.008 188.45Z" fill="#B2A4FF"/>
<path d="M137.371 266.223L178.35 264.976L196.184 334.59L192.903 414.442H171.236L173.887 336.29L158.041 287.826L160.48 417.537L138.581 417.861L136.281 295.939C136.179 292.548 135.07 284.906 135.486 281.543L137.371 266.223Z" fill="#263238"/>
<path d="M163.492 288.815C162.822 288.857 162.148 288.817 161.487 288.695C160.249 288.547 158.558 288.288 156.701 287.919C154.844 287.549 153.181 287.124 151.979 286.782C151.337 286.641 150.716 286.417 150.131 286.117C150.131 285.978 153.144 286.699 156.84 287.447C160.536 288.196 163.511 288.676 163.492 288.815Z" fill="#455A64"/>
<path d="M192.681 410.063C192.681 410.192 187.775 410.303 181.723 410.303C175.671 410.303 170.755 410.192 170.755 410.063C170.755 409.933 175.661 409.822 181.723 409.822C187.784 409.822 192.681 409.924 192.681 410.063Z" fill="#455A64"/>
<path d="M160.286 414.165C160.286 414.304 155.518 414.405 149.642 414.405C143.765 414.405 139.006 414.304 139.006 414.165C139.006 414.026 143.774 413.925 149.642 413.925C155.509 413.925 160.286 414.036 160.286 414.165Z" fill="#455A64"/>
<path d="M157.458 413.832C157.329 413.832 156.756 385.493 156.174 350.538C155.592 315.583 155.25 287.226 155.37 287.226C155.49 287.226 156.082 315.555 156.654 350.529C157.227 385.502 157.597 413.832 157.458 413.832Z" fill="#455A64"/>
<path d="M189.771 410.063C189.761 409.937 189.761 409.81 189.771 409.684V408.575C189.771 407.577 189.845 406.145 189.9 404.325C190.03 400.629 190.214 395.26 190.445 388.681C190.944 375.45 191.647 357.21 192.413 337.076C192.413 336.882 192.413 336.697 192.413 336.531V336.595C187.562 317.191 183.173 299.58 179.986 286.838L176.29 271.768C175.865 270.003 175.541 268.626 175.31 267.665C175.199 267.212 175.125 266.861 175.061 266.593C175.025 266.473 175.003 266.349 174.996 266.224C175.044 266.34 175.081 266.461 175.107 266.584C175.181 266.843 175.273 267.194 175.403 267.637C175.652 268.561 176.012 269.966 176.474 271.721C177.398 275.288 178.701 280.426 180.328 286.755C183.543 299.488 187.978 317.053 192.894 336.485V336.549C192.894 336.716 192.894 336.91 192.894 337.094C192.072 357.228 191.323 375.459 190.778 388.691C190.492 395.279 190.251 400.61 190.085 404.325C189.993 406.173 189.919 407.577 189.872 408.575C189.872 409.046 189.817 409.416 189.808 409.684C189.809 409.811 189.797 409.938 189.771 410.063Z" fill="#455A64"/>
<path d="M182.702 334.904C181.146 335.416 179.543 335.772 177.916 335.967C175.92 336.309 174.22 336.549 173.453 336.586V336.401C173.703 336.475 173.832 336.521 173.832 336.558C173.832 336.595 173.675 336.558 173.416 336.558H172.862L173.416 336.392C174.137 336.179 175.837 335.828 177.833 335.468C179.434 335.121 181.065 334.932 182.702 334.904Z" fill="#455A64"/>
<path d="M182.324 337.557C180.882 337.623 179.438 337.558 178.009 337.363C176.565 337.333 175.127 337.175 173.712 336.891C176.6 336.656 179.506 336.88 182.324 337.557Z" fill="#455A64"/>
<path opacity="0.2" d="M137.195 267.692C137.681 268.315 138.292 268.829 138.989 269.2C139.687 269.571 140.454 269.791 141.242 269.845C142.893 270.041 144.562 270.009 146.204 269.753C156.784 268.579 167.992 267.498 178.35 264.976C164.943 265.724 150.778 265.475 137.371 266.223L137.232 267.369" fill="black"/>
<g opacity="0.2">
<path d="M151.009 286.588L158.568 315.916L158.041 287.826L151.009 286.588Z" fill="black"/>
</g>
</svg>
