<svg width="45" height="45" viewBox="0 0 45 45" fill="none" xmlns="http://www.w3.org/2000/svg">
<mask id="mask0_19_829" style="mask-type:alpha" maskUnits="userSpaceOnUse" x="0" y="0" width="45" height="45">
<rect width="45" height="45" fill="#D9D9D9"/>
</mask>
<g mask="url(#mask0_19_829)">
<path d="M13.125 41.25C12.0938 41.25 11.2109 40.8828 10.4766 40.1484C9.74219 39.4141 9.375 38.5312 9.375 37.5C9.375 36.4688 9.74219 35.5859 10.4766 34.8516C11.2109 34.1172 12.0938 33.75 13.125 33.75C14.1563 33.75 15.0391 34.1172 15.7734 34.8516C16.5078 35.5859 16.875 36.4688 16.875 37.5C16.875 38.5312 16.5078 39.4141 15.7734 40.1484C15.0391 40.8828 14.1563 41.25 13.125 41.25ZM31.875 41.25C30.8438 41.25 29.9609 40.8828 29.2266 40.1484C28.4922 39.4141 28.125 38.5312 28.125 37.5C28.125 36.4688 28.4922 35.5859 29.2266 34.8516C29.9609 34.1172 30.8438 33.75 31.875 33.75C32.9063 33.75 33.7891 34.1172 34.5234 34.8516C35.2578 35.5859 35.625 36.4688 35.625 37.5C35.625 38.5312 35.2578 39.4141 34.5234 40.1484C33.7891 40.8828 32.9063 41.25 31.875 41.25ZM11.5313 11.25L16.0313 20.625H29.1563L34.3125 11.25H11.5313ZM9.75 7.5H37.4063C38.125 7.5 38.6719 7.82031 39.0469 8.46094C39.4219 9.10156 39.4375 9.75 39.0938 10.4062L32.4375 22.4062C32.0938 23.0312 31.6328 23.5156 31.0547 23.8594C30.4766 24.2031 29.8438 24.375 29.1563 24.375H15.1875L13.125 28.125H35.625V31.875H13.125C11.7188 31.875 10.6563 31.2578 9.9375 30.0234C9.21875 28.7891 9.1875 27.5625 9.84375 26.3438L12.375 21.75L5.625 7.5H1.875V3.75H7.96875L9.75 7.5Z" fill="#F7F6FF"/>
</g>
</svg>
